<svg xmlns="http://www.w3.org/2000/svg" xmlns:xlink="http://www.w3.org/1999/xlink" xmlns:lucid="lucid" width="606.93" height="354.96"><g transform="translate(-42.99212598425196 -206.77165354325479)" lucid:page-tab-id="hJBKmdd-_zuI"><path d="M125.98 384.25c0 17.4-14.1 31.5-31.5 31.5S63 401.65 63 384.25s14.1-31.5 31.5-31.5 31.5 14.1 31.5 31.5z" stroke="#000" stroke-width="2" fill="#fff"/><use xlink:href="#a" transform="matrix(1,0,0,1,67.992125984252,357.75590551181097) translate(18 30.1)"/><path d="M250.64 384.25c0 17.4-14.1 31.5-31.5 31.5s-31.5-14.1-31.5-31.5 14.1-31.5 31.5-31.5 31.5 14.1 31.5 31.5z" stroke="#000" stroke-width="2" fill="#fff"/><use xlink:href="#b" transform="matrix(1,0,0,1,192.64304461939332,357.75590551181097) translate(18 30.1)"/><path d="M377.95 384.25c0 17.4-14.1 31.5-31.5 31.5s-31.5-14.1-31.5-31.5 14.1-31.5 31.5-31.5 31.5 14.1 31.5 31.5z" stroke="#000" stroke-width="2" fill="#fff"/><use xlink:href="#c" transform="matrix(1,0,0,1,319.9606299212012,357.75590551181097) translate(18 30.1)"/><path d="M503.94 384.25c0 17.4-14.1 31.5-31.5 31.5s-31.5-14.1-31.5-31.5 14.1-31.5 31.5-31.5 31.5 14.1 31.5 31.5z" stroke="#000" stroke-width="2" fill="#fff"/><use xlink:href="#d" transform="matrix(1,0,0,1,445.94488188967574,357.75590551181097) translate(18 30.1)"/><path d="M629.92 384.25c0 17.4-14.1 31.5-31.5 31.5s-31.5-14.1-31.5-31.5 14.1-31.5 31.5-31.5 31.5 14.1 31.5 31.5z" stroke="#000" stroke-width="2" fill="#fff"/><use xlink:href="#e" transform="matrix(1,0,0,1,571.9291338581502,357.75590551181097) translate(18 30.1)"/><path d="M125.98 510.24c0 17.4-14.1 31.5-31.5 31.5S63 527.63 63 510.23s14.1-31.5 31.5-31.5 31.5 14.1 31.5 31.5z" stroke="#000" stroke-width="2" fill="#fff"/><use xlink:href="#f" transform="matrix(1,0,0,1,67.992125984252,483.74015748036715) translate(18 30.1)"/><path d="M250.64 510.24c0 17.4-14.1 31.5-31.5 31.5s-31.5-14.1-31.5-31.5 14.1-31.5 31.5-31.5 31.5 14.1 31.5 31.5z" stroke="#000" stroke-width="2" fill="#fff"/><use xlink:href="#g" transform="matrix(1,0,0,1,192.6430446193932,483.74015748036715) translate(18 30.1)"/><path d="M377.95 510.24c0 17.4-14.1 31.5-31.5 31.5s-31.5-14.1-31.5-31.5 14.1-31.5 31.5-31.5 31.5 14.1 31.5 31.5z" stroke="#000" stroke-width="2" fill="#fff"/><use xlink:href="#h" transform="matrix(1,0,0,1,319.9606299212012,483.74015748036715) translate(18 30.1)"/><path d="M503.94 510.24c0 17.4-14.1 31.5-31.5 31.5s-31.5-14.1-31.5-31.5 14.1-31.5 31.5-31.5 31.5 14.1 31.5 31.5z" stroke="#000" stroke-width="2" fill="#fff"/><use xlink:href="#i" transform="matrix(1,0,0,1,445.9448818896757,483.74015748036715) translate(18 30.1)"/><path d="M629.92 510.24c0 17.4-14.1 31.5-31.5 31.5s-31.5-14.1-31.5-31.5 14.1-31.5 31.5-31.5 31.5 14.1 31.5 31.5z" stroke="#000" stroke-width="2" fill="#fff"/><use xlink:href="#j" transform="matrix(1,0,0,1,571.9291338581502,483.74015748036715) translate(18 30.1)"/><path d="M346.46 477.74V435" stroke="#000" stroke-width="2" fill="none"/><path d="M347.46 478.82l-1-.08-1 .07v-1.06h2zM351.1 434.25h-9.28l4.64-14.26z"/><path d="M352.47 435.25h-12.02l6-18.5zm-9.27-2h6.52l-3.26-10.03z"/><path d="M346.46 477.74l109.57-53.04" stroke="#000" stroke-width="2" fill="none"/><path d="M346.9 478.64l-.25.12-.2-.02-2.75.2-.38-.8 2.7-1.3zM458.7 428.55l-4.03-8.35 14.86-2.04z"/><path d="M458.4 430.22l-5.23-10.82 19.27-2.65zm-2.23-9.2l2.84 5.85 7.62-7.3z"/><path d="M346.46 477.74l-110.87-53.1" stroke="#000" stroke-width="2" fill="none"/><path d="M349.6 478.13l-.4.83-2.74-.22h-.2l-.24-.1.87-1.8zM236.93 420.13l-4 8.36-10.87-10.35z"/><path d="M238.42 419.32l-5.2 10.85-14.08-13.42zm-5.8 7.5l2.8-5.88-10.44-1.4z"/><path d="M219.14 477.74V435" stroke="#000" stroke-width="2" fill="none"/><path d="M220.14 478.82l-1-.08-1 .07v-1.06h2zM223.77 434.25h-9.27l4.64-14.26z"/><path d="M225.15 435.25h-12.02l6-18.5zm-9.27-2h6.52l-3.26-10.03z"/><path d="M94.5 477.74V435" stroke="#000" stroke-width="2" fill="none"/><path d="M95.5 478.82l-1-.08-1 .07v-1.06h2zM99.12 434.25h-9.27L94.5 420z"/><path d="M100.5 435.25H88.48l6-18.5zm-9.27-2h6.52l-3.26-10.03z"/><path d="M472.44 477.74V435" stroke="#000" stroke-width="2" fill="none"/><path d="M473.44 478.82l-1-.08-1 .07v-1.06h2zM477.08 434.25h-9.27l4.64-14.26z"/><path d="M478.45 435.25h-12.02l6-18.5zm-9.27-2h6.52l-3.26-10.03z"/><path d="M598.43 477.74V435" stroke="#000" stroke-width="2" fill="none"/><path d="M599.43 478.82l-1-.08-1 .07v-1.06h2zM603.06 434.25h-9.27l4.63-14.26z"/><path d="M604.44 435.25H592.4l6.03-18.5zm-9.27-2h6.5l-3.24-10.03z"/><path d="M472.44 477.74L582 424.7" stroke="#000" stroke-width="2" fill="none"/><path d="M472.88 478.64l-.25.12-.2-.02-2.74.2-.4-.8 2.7-1.3zM584.7 428.55l-4.05-8.35 14.86-2.04z"/><path d="M584.4 430.22l-5.25-10.82 19.28-2.65zm-2.25-9.2l2.84 5.85 7.6-7.3z"/><path d="M219.14 477.74L330 424.64" stroke="#000" stroke-width="2" fill="none"/><path d="M219.57 478.64l-.24.12-.2-.02-2.74.2-.4-.8 2.7-1.3zM332.67 428.5l-4-8.37 14.87-1.98z"/><path d="M332.37 430.17l-5.2-10.85 19.3-2.57zm-2.2-9.23l2.8 5.88 7.65-7.27z"/><path d="M94.5 477.74l108.26-52.98" stroke="#000" stroke-width="2" fill="none"/><path d="M94.93 478.64l-.25.12-.2-.02-2.75.2-.38-.78 2.7-1.32zM205.46 428.6l-4.08-8.32 14.85-2.1z"/><path d="M205.16 430.28l-5.28-10.8 19.26-2.73zm-2.28-9.2l2.87 5.85 7.58-7.34z"/><path d="M219.14 477.74l-108.27-52.98" stroke="#000" stroke-width="2" fill="none"/><path d="M222.27 478.16l-.4.8-2.73-.22h-.2l-.24-.1.88-1.8zM112.25 420.28l-4.08 8.33-10.78-10.43z"/><path d="M113.75 419.48l-5.28 10.8-13.98-13.53zm-5.87 7.45l2.86-5.85-10.44-1.5z"/><path d="M472.44 477.74L362.87 424.7" stroke="#000" stroke-width="2" fill="none"/><path d="M475.58 478.14l-.4.82-2.74-.22h-.2l-.23-.1.88-1.8zM364.23 420.2l-4.04 8.35-10.83-10.4z"/><path d="M365.73 419.4l-5.24 10.82-14.04-13.47zm-5.84 7.47l2.83-5.86-10.45-1.43z"/><path d="M598.43 477.74L488.85 424.7" stroke="#000" stroke-width="2" fill="none"/><path d="M601.56 478.14l-.4.82-2.73-.22h-.2l-.24-.1.86-1.8zM490.2 420.2l-4.03 8.35-10.82-10.4z"/><path d="M491.7 419.4l-5.23 10.82-14.03-13.47zm-5.83 7.47l2.84-5.86-10.43-1.43z"/><path d="M125.98 258.27c0 17.4-14.1 31.5-31.5 31.5S63 275.66 63 258.26s14.1-31.5 31.5-31.5 31.5 14.1 31.5 31.5z" stroke="#000" stroke-width="2" fill="#fff"/><use xlink:href="#k" transform="matrix(1,0,0,1,67.99212598425197,231.77165354325479) translate(18.5 30.1)"/><path d="M377.95 258.27c0 17.4-14.1 31.5-31.5 31.5s-31.5-14.1-31.5-31.5 14.1-31.5 31.5-31.5 31.5 14.1 31.5 31.5z" stroke="#000" stroke-width="2" fill="#fff"/><use xlink:href="#l" transform="matrix(1,0,0,1,319.96062992120113,231.77165354325479) translate(18.5 30.1)"/><path d="M629.92 258.27c0 17.4-14.1 31.5-31.5 31.5s-31.5-14.1-31.5-31.5 14.1-31.5 31.5-31.5 31.5 14.1 31.5 31.5z" stroke="#000" stroke-width="2" fill="#fff"/><use xlink:href="#m" transform="matrix(1,0,0,1,571.9291338581502,231.77165354325479) translate(18.5 30.1)"/><path d="M94.5 351.75V309" stroke="#000" stroke-width="2" fill="none"/><path d="M95.5 352.84l-1-.08-1 .07v-1.08h2zM99.12 308.27h-9.27L94.5 294z"/><path d="M100.5 309.27H88.48l6-18.5zm-9.27-2h6.52l-3.26-10.03z"/><path d="M346.46 351.75V309" stroke="#000" stroke-width="2" fill="none"/><path d="M347.46 352.84l-1-.08-1 .07v-1.08h2zM351.1 308.27h-9.28l4.64-14.27z"/><path d="M352.47 309.27h-12.02l6-18.5zm-9.27-2h6.52l-3.26-10.03z"/><path d="M598.43 351.75V309" stroke="#000" stroke-width="2" fill="none"/><path d="M599.43 352.84l-1-.08-1 .07v-1.08h2zM603.06 308.27h-9.27l4.63-14.27z"/><path d="M604.44 309.27H592.4l6.03-18.5zm-9.27-2h6.5l-3.24-10.03z"/><defs><path d="M115-194c55 1 70 41 70 98S169 2 115 4C84 4 66-9 55-30l1 105H24l-1-265h31l2 30c10-21 28-34 59-34zm-8 174c40 0 45-34 45-75s-6-73-45-74c-42 0-51 32-51 76 0 43 10 73 51 73" id="n"/><path d="M27 0v-27h64v-190l-56 39v-29l58-41h29v221h61V0H27" id="o"/><g id="a"><use transform="matrix(0.05,0,0,0.05,0,0)" xlink:href="#n"/><use transform="matrix(0.034999999999999996,0,0,0.034999999999999996,10,2.5199999999999996)" xlink:href="#o"/></g><path d="M101-251c82-7 93 87 43 132L82-64C71-53 59-42 53-27h129V0H18c2-99 128-94 128-182 0-28-16-43-45-43s-46 15-49 41l-32-3c6-41 34-60 81-64" id="p"/><g id="b"><use transform="matrix(0.05,0,0,0.05,0,0)" xlink:href="#n"/><use transform="matrix(0.034999999999999996,0,0,0.034999999999999996,10,2.5199999999999996)" xlink:href="#p"/></g><path d="M126-127c33 6 58 20 58 59 0 88-139 92-164 29-3-8-5-16-6-25l32-3c6 27 21 44 54 44 32 0 52-15 52-46 0-38-36-46-79-43v-28c39 1 72-4 72-42 0-27-17-43-46-43-28 0-47 15-49 41l-32-3c6-42 35-63 81-64 48-1 79 21 79 65 0 36-21 52-52 59" id="q"/><g id="c"><use transform="matrix(0.05,0,0,0.05,0,0)" xlink:href="#n"/><use transform="matrix(0.034999999999999996,0,0,0.034999999999999996,10,2.5199999999999996)" xlink:href="#q"/></g><path d="M155-56V0h-30v-56H8v-25l114-167h33v167h35v25h-35zm-30-156c-27 46-58 90-88 131h88v-131" id="r"/><g id="d"><use transform="matrix(0.05,0,0,0.05,0,0)" xlink:href="#n"/><use transform="matrix(0.034999999999999996,0,0,0.034999999999999996,10,2.5199999999999996)" xlink:href="#r"/></g><path d="M54-142c48-35 137-8 131 61C196 18 31 33 14-55l32-4c7 23 22 37 52 37 35-1 51-22 54-58 4-55-73-65-99-34H22l8-134h141v27H59" id="s"/><g id="e"><use transform="matrix(0.05,0,0,0.05,0,0)" xlink:href="#n"/><use transform="matrix(0.034999999999999996,0,0,0.034999999999999996,10,2.5199999999999996)" xlink:href="#s"/></g><path d="M145-31C134-9 116 4 85 4 32 4 16-35 15-94c0-59 17-99 70-100 32-1 48 14 60 33 0-11-1-24 2-32h30l-1 268h-32zM93-21c41 0 51-33 51-76s-8-73-50-73c-40 0-46 35-46 75s5 74 45 74" id="t"/><g id="f"><use transform="matrix(0.05,0,0,0.05,0,0)" xlink:href="#t"/><use transform="matrix(0.034999999999999996,0,0,0.034999999999999996,10,2.5199999999999996)" xlink:href="#o"/></g><g id="g"><use transform="matrix(0.05,0,0,0.05,0,0)" xlink:href="#t"/><use transform="matrix(0.034999999999999996,0,0,0.034999999999999996,10,2.5199999999999996)" xlink:href="#p"/></g><g id="h"><use transform="matrix(0.05,0,0,0.05,0,0)" xlink:href="#t"/><use transform="matrix(0.034999999999999996,0,0,0.034999999999999996,10,2.5199999999999996)" xlink:href="#q"/></g><g id="i"><use transform="matrix(0.05,0,0,0.05,0,0)" xlink:href="#t"/><use transform="matrix(0.034999999999999996,0,0,0.034999999999999996,10,2.5199999999999996)" xlink:href="#r"/></g><g id="j"><use transform="matrix(0.05,0,0,0.05,0,0)" xlink:href="#t"/><use transform="matrix(0.034999999999999996,0,0,0.034999999999999996,10,2.5199999999999996)" xlink:href="#s"/></g><path d="M135-143c-3-34-86-38-87 0 15 53 115 12 119 90S17 21 10-45l28-5c4 36 97 45 98 0-10-56-113-15-118-90-4-57 82-63 122-42 12 7 21 19 24 35" id="u"/><g id="k"><use transform="matrix(0.05,0,0,0.05,0,0)" xlink:href="#u"/><use transform="matrix(0.034999999999999996,0,0,0.034999999999999996,9,2.5199999999999996)" xlink:href="#o"/></g><g id="l"><use transform="matrix(0.05,0,0,0.05,0,0)" xlink:href="#u"/><use transform="matrix(0.034999999999999996,0,0,0.034999999999999996,9,2.5199999999999996)" xlink:href="#q"/></g><g id="m"><use transform="matrix(0.05,0,0,0.05,0,0)" xlink:href="#u"/><use transform="matrix(0.034999999999999996,0,0,0.034999999999999996,9,2.5199999999999996)" xlink:href="#s"/></g></defs></g></svg>