<svg xmlns="http://www.w3.org/2000/svg" xmlns:xlink="http://www.w3.org/1999/xlink" xmlns:lucid="lucid" width="606.93" height="228.98"><g transform="translate(-42.9921259842813 -17.79527559049893)" lucid:page-tab-id="PZCK0RI8LJJ~"><path d="M125.98 69.3c0 17.4-14.1 31.5-31.5 31.5S63 86.7 63 69.3s14.1-31.5 31.5-31.5S126 51.9 126 69.3z" stroke="#000" stroke-width="2" fill="#fff"/><use xlink:href="#a" transform="matrix(1,0,0,1,67.9921259842813,42.79527559049893) translate(18.5 30.1)"/><path d="M251.97 69.3c0 17.4-14.1 31.5-31.5 31.5s-31.5-14.1-31.5-31.5 14.1-31.5 31.5-31.5 31.5 14.1 31.5 31.5z" stroke="#000" stroke-width="2" fill="#fff"/><use xlink:href="#b" transform="matrix(1,0,0,1,193.9763779528147,42.79527559049895) translate(18.5 30.1)"/><path d="M377.95 69.3c0 17.4-14.1 31.5-31.5 31.5s-31.5-14.1-31.5-31.5 14.1-31.5 31.5-31.5 31.5 14.1 31.5 31.5z" stroke="#000" stroke-width="2" fill="#fff"/><use xlink:href="#c" transform="matrix(1,0,0,1,319.96062992125985,42.79527559049893) translate(18.5 30.1)"/><path d="M503.94 69.3c0 17.4-14.1 31.5-31.5 31.5s-31.5-14.1-31.5-31.5 14.1-31.5 31.5-31.5 31.5 14.1 31.5 31.5z" stroke="#000" stroke-width="2" fill="#fff"/><use xlink:href="#d" transform="matrix(1,0,0,1,445.944881889705,42.79527559049895) translate(18.5 30.1)"/><path d="M629.92 69.3c0 17.4-14.1 31.5-31.5 31.5s-31.5-14.1-31.5-31.5 14.1-31.5 31.5-31.5 31.5 14.1 31.5 31.5z" stroke="#000" stroke-width="2" fill="#fff"/><use xlink:href="#e" transform="matrix(1,0,0,1,571.9291338581795,42.79527559049893) translate(18.5 30.1)"/><path d="M125.98 195.28c0 17.4-14.1 31.5-31.5 31.5S63 212.67 63 195.27s14.1-31.5 31.5-31.5 31.5 14.1 31.5 31.5z" stroke="#000" stroke-width="2" fill="#fff"/><use xlink:href="#f" transform="matrix(1,0,0,1,67.9921259842813,168.7795275590551) translate(18 30.1)"/><path d="M251.97 195.28c0 17.4-14.1 31.5-31.5 31.5s-31.5-14.1-31.5-31.5 14.1-31.5 31.5-31.5 31.5 14.1 31.5 31.5z" stroke="#000" stroke-width="2" fill="#fff"/><use xlink:href="#g" transform="matrix(1,0,0,1,193.97637795275588,168.7795275590551) translate(18 30.1)"/><path d="M377.95 195.28c0 17.4-14.1 31.5-31.5 31.5s-31.5-14.1-31.5-31.5 14.1-31.5 31.5-31.5 31.5 14.1 31.5 31.5z" stroke="#000" stroke-width="2" fill="#fff"/><use xlink:href="#h" transform="matrix(1,0,0,1,319.96062992123046,168.7795275590551) translate(18 30.1)"/><path d="M503.94 195.28c0 17.4-14.1 31.5-31.5 31.5s-31.5-14.1-31.5-31.5 14.1-31.5 31.5-31.5 31.5 14.1 31.5 31.5z" stroke="#000" stroke-width="2" fill="#fff"/><use xlink:href="#i" transform="matrix(1,0,0,1,445.944881889705,168.7795275590551) translate(18 30.1)"/><path d="M629.92 195.28c0 17.4-14.1 31.5-31.5 31.5s-31.5-14.1-31.5-31.5 14.1-31.5 31.5-31.5 31.5 14.1 31.5 31.5z" stroke="#000" stroke-width="2" fill="#fff"/><use xlink:href="#j" transform="matrix(1,0,0,1,571.9291338581795,168.7795275590551) translate(18 30.1)"/><path d="M94.5 162.78v-42.75" stroke="#000" stroke-width="2" fill="none"/><path d="M95.5 163.86l-1-.08-1 .07v-1.07h2zM99.12 119.3h-9.27l4.64-14.27z"/><path d="M100.5 120.3H88.48l6-18.5zm-9.27-2h6.52l-3.26-10.04z"/><use xlink:href="#k" transform="matrix(1,0,0,1,102.48818897639262,121.48346457533607) translate(0 14.4)"/><path d="M220.47 162.78L110.9 109.74" stroke="#000" stroke-width="2" fill="none"/><path d="M223.6 163.18l-.4.82-2.73-.22h-.2l-.23-.1.87-1.8zM112.26 105.24l-4.04 8.35-10.82-10.4z"/><path d="M113.76 104.44l-5.24 10.82L94.5 101.8zm-5.84 7.47l2.84-5.85-10.45-1.44z"/><use xlink:href="#l" transform="matrix(1,0,0,1,157.5672708252145,107.86359663851952) translate(0 14.4)"/><path d="M220.47 162.78v-42.75" stroke="#000" stroke-width="2" fill="none"/><path d="M221.47 163.86l-1-.08-1 .07v-1.07h2zM225.1 119.3h-9.26l4.63-14.27z"/><path d="M226.48 120.3h-12.02l6-18.5zm-9.27-2h6.53l-3.26-10.04z"/><use xlink:href="#m" transform="matrix(1,0,0,1,228.4724409448672,121.48346457533607) translate(0 14.4)"/><path d="M346.46 162.78L236.9 109.74" stroke="#000" stroke-width="2" fill="none"/><path d="M349.6 163.18l-.4.82-2.74-.22h-.2l-.24-.1.87-1.8zM238.25 105.24l-4.04 8.35-10.8-10.4z"/><path d="M239.75 104.44l-5.24 10.82-14.03-13.47zm-5.84 7.47l2.85-5.85-10.45-1.44z"/><use xlink:href="#n" transform="matrix(1,0,0,1,283.55152279372044,107.86359663852052) translate(0 14.4)"/><path d="M346.46 162.78v-42.75" stroke="#000" stroke-width="2" fill="none"/><path d="M347.46 163.86l-1-.08-1 .07v-1.07h2zM351.1 119.3h-9.28l4.64-14.27z"/><path d="M352.47 120.3h-12.02l6-18.5zm-9.27-2h6.52l-3.26-10.04z"/><use xlink:href="#k" transform="matrix(1,0,0,1,354.4566929133418,121.48346457533607) translate(0 14.4)"/><path d="M472.44 162.78l-109.57-53.04" stroke="#000" stroke-width="2" fill="none"/><path d="M475.58 163.18l-.4.82-2.74-.22h-.2l-.23-.1.88-1.8zM364.23 105.24l-4.04 8.35-10.83-10.4z"/><path d="M365.73 104.44l-5.24 10.82-14.04-13.47zm-5.84 7.47l2.83-5.85-10.45-1.44z"/><use xlink:href="#l" transform="matrix(1,0,0,1,409.53577476217936,107.86359663852001) translate(0 14.4)"/><path d="M472.44 162.78v-42.75" stroke="#000" stroke-width="2" fill="none"/><path d="M473.44 163.86l-1-.08-1 .07v-1.07h2zM477.08 119.3h-9.27l4.64-14.27z"/><path d="M478.45 120.3h-12.02l6-18.5zm-9.27-2h6.52l-3.26-10.04z"/><use xlink:href="#m" transform="matrix(1,0,0,1,480.44094488181634,121.48346457533607) translate(0 14.4)"/><path d="M598.43 162.78l-109.58-53.04" stroke="#000" stroke-width="2" fill="none"/><path d="M601.56 163.18l-.4.82-2.73-.22h-.2l-.24-.1.86-1.8zM490.2 105.24l-4.03 8.35-10.82-10.4z"/><path d="M491.7 104.44l-5.23 10.82-14.03-13.47zm-5.83 7.47l2.84-5.85-10.43-1.44z"/><use xlink:href="#n" transform="matrix(1,0,0,1,535.5200267306382,107.86359663851954) translate(0 14.4)"/><path d="M598.43 162.78v-42.75" stroke="#000" stroke-width="2" fill="none"/><path d="M599.43 163.86l-1-.08-1 .07v-1.07h2zM603.06 119.3h-9.27l4.63-14.27z"/><path d="M604.44 120.3H592.4l6.03-18.5zm-9.27-2h6.5l-3.24-10.04z"/><use xlink:href="#k" transform="matrix(1,0,0,1,606.4251968502908,121.48346457533607) translate(0 14.4)"/><defs><path d="M135-143c-3-34-86-38-87 0 15 53 115 12 119 90S17 21 10-45l28-5c4 36 97 45 98 0-10-56-113-15-118-90-4-57 82-63 122-42 12 7 21 19 24 35" id="o"/><path d="M27 0v-27h64v-190l-56 39v-29l58-41h29v221h61V0H27" id="p"/><g id="a"><use transform="matrix(0.05,0,0,0.05,0,0)" xlink:href="#o"/><use transform="matrix(0.034999999999999996,0,0,0.034999999999999996,9,2.5199999999999996)" xlink:href="#p"/></g><path d="M101-251c82-7 93 87 43 132L82-64C71-53 59-42 53-27h129V0H18c2-99 128-94 128-182 0-28-16-43-45-43s-46 15-49 41l-32-3c6-41 34-60 81-64" id="q"/><g id="b"><use transform="matrix(0.05,0,0,0.05,0,0)" xlink:href="#o"/><use transform="matrix(0.034999999999999996,0,0,0.034999999999999996,9,2.5199999999999996)" xlink:href="#q"/></g><path d="M126-127c33 6 58 20 58 59 0 88-139 92-164 29-3-8-5-16-6-25l32-3c6 27 21 44 54 44 32 0 52-15 52-46 0-38-36-46-79-43v-28c39 1 72-4 72-42 0-27-17-43-46-43-28 0-47 15-49 41l-32-3c6-42 35-63 81-64 48-1 79 21 79 65 0 36-21 52-52 59" id="r"/><g id="c"><use transform="matrix(0.05,0,0,0.05,0,0)" xlink:href="#o"/><use transform="matrix(0.034999999999999996,0,0,0.034999999999999996,9,2.5199999999999996)" xlink:href="#r"/></g><path d="M155-56V0h-30v-56H8v-25l114-167h33v167h35v25h-35zm-30-156c-27 46-58 90-88 131h88v-131" id="s"/><g id="d"><use transform="matrix(0.05,0,0,0.05,0,0)" xlink:href="#o"/><use transform="matrix(0.034999999999999996,0,0,0.034999999999999996,9,2.5199999999999996)" xlink:href="#s"/></g><path d="M54-142c48-35 137-8 131 61C196 18 31 33 14-55l32-4c7 23 22 37 52 37 35-1 51-22 54-58 4-55-73-65-99-34H22l8-134h141v27H59" id="t"/><g id="e"><use transform="matrix(0.05,0,0,0.05,0,0)" xlink:href="#o"/><use transform="matrix(0.034999999999999996,0,0,0.034999999999999996,9,2.5199999999999996)" xlink:href="#t"/></g><path d="M115-194c55 1 70 41 70 98S169 2 115 4C84 4 66-9 55-30l1 105H24l-1-265h31l2 30c10-21 28-34 59-34zm-8 174c40 0 45-34 45-75s-6-73-45-74c-42 0-51 32-51 76 0 43 10 73 51 73" id="u"/><g id="f"><use transform="matrix(0.05,0,0,0.05,0,0)" xlink:href="#u"/><use transform="matrix(0.034999999999999996,0,0,0.034999999999999996,10,2.5199999999999996)" xlink:href="#p"/></g><g id="g"><use transform="matrix(0.05,0,0,0.05,0,0)" xlink:href="#u"/><use transform="matrix(0.034999999999999996,0,0,0.034999999999999996,10,2.5199999999999996)" xlink:href="#q"/></g><g id="h"><use transform="matrix(0.05,0,0,0.05,0,0)" xlink:href="#u"/><use transform="matrix(0.034999999999999996,0,0,0.034999999999999996,10,2.5199999999999996)" xlink:href="#r"/></g><g id="i"><use transform="matrix(0.05,0,0,0.05,0,0)" xlink:href="#u"/><use transform="matrix(0.034999999999999996,0,0,0.034999999999999996,10,2.5199999999999996)" xlink:href="#s"/></g><g id="j"><use transform="matrix(0.05,0,0,0.05,0,0)" xlink:href="#u"/><use transform="matrix(0.034999999999999996,0,0,0.034999999999999996,10,2.5199999999999996)" xlink:href="#t"/></g><path d="M141-36C126-15 110 5 73 4 37 3 15-17 15-53c-1-64 63-63 125-63 3-35-9-54-41-54-24 1-41 7-42 31l-33-3c5-37 33-52 76-52 45 0 72 20 72 64v82c-1 20 7 32 28 27v20c-31 9-61-2-59-35zM48-53c0 20 12 33 32 33 41-3 63-29 60-74-43 2-92-5-92 41" id="v"/><use transform="matrix(0.05,0,0,0.05,0,0)" xlink:href="#v" id="k"/><path d="M115-194c53 0 69 39 70 98 0 66-23 100-70 100C84 3 66-7 56-30L54 0H23l1-261h32v101c10-23 28-34 59-34zm-8 174c40 0 45-34 45-75 0-40-5-75-45-74-42 0-51 32-51 76 0 43 10 73 51 73" id="w"/><use transform="matrix(0.05,0,0,0.05,0,0)" xlink:href="#w" id="l"/><path d="M96-169c-40 0-48 33-48 73s9 75 48 75c24 0 41-14 43-38l32 2c-6 37-31 61-74 61-59 0-76-41-82-99-10-93 101-131 147-64 4 7 5 14 7 22l-32 3c-4-21-16-35-41-35" id="x"/><use transform="matrix(0.05,0,0,0.05,0,0)" xlink:href="#x" id="m"/><path d="M85-194c31 0 48 13 60 33l-1-100h32l1 261h-30c-2-10 0-23-3-31C134-8 116 4 85 4 32 4 16-35 15-94c0-66 23-100 70-100zm9 24c-40 0-46 34-46 75 0 40 6 74 45 74 42 0 51-32 51-76 0-42-9-74-50-73" id="y"/><use transform="matrix(0.05,0,0,0.05,0,0)" xlink:href="#y" id="n"/></defs></g></svg>