<svg xmlns="http://www.w3.org/2000/svg" xmlns:xlink="http://www.w3.org/1999/xlink" xmlns:lucid="lucid" width="872.91" height="446.87"><g transform="translate(-140.62992125984255 -168.7244094488189)" lucid:page-tab-id="0_0"><path d="M160.63 475.6h120v120h-120zM162.05 239.24h120v120h-120z" stroke="#f33040" stroke-width="2" fill-opacity="0"/><path d="M172.52 248.72h40v40h-40z" stroke="#000" stroke-width="2" fill="#fff"/><use xlink:href="#a" transform="matrix(1,0,0,1,177.51968503937013,253.7244094488189) translate(10 18.6)"/><path d="M232.52 248.72h40v40h-40z" stroke="#000" stroke-width="2" fill="#fff"/><use xlink:href="#b" transform="matrix(1,0,0,1,237.5196850393701,253.7244094488189) translate(10 18.6)"/><path d="M292.52 248.72h40v40h-40z" stroke="#000" stroke-width="2" fill="#fff"/><use xlink:href="#c" transform="matrix(1,0,0,1,297.5196850393701,253.7244094488189) translate(10.5 18.6)"/><path d="M352.52 248.72h40v40h-40z" stroke="#000" stroke-width="2" fill="#fff"/><use xlink:href="#d" transform="matrix(1,0,0,1,357.5196850393701,253.7244094488189) translate(10 18.6)"/><path d="M172.52 308.72h40v40h-40z" stroke="#000" stroke-width="2" fill="#fff"/><use xlink:href="#e" transform="matrix(1,0,0,1,177.51968503937013,313.7244094488189) translate(10 18.6)"/><path d="M232.52 308.72h40v40h-40z" stroke="#000" stroke-width="2" fill="#fff"/><use xlink:href="#f" transform="matrix(1,0,0,1,237.5196850393701,313.7244094488189) translate(12.5 18.6)"/><path d="M292.52 308.72h40v40h-40z" stroke="#000" stroke-width="2" fill="#fff"/><use xlink:href="#g" transform="matrix(1,0,0,1,297.5196850393701,313.7244094488189) translate(10 18.6)"/><path d="M352.52 308.72h40v40h-40z" stroke="#000" stroke-width="2" fill="#fff"/><use xlink:href="#h" transform="matrix(1,0,0,1,357.5196850393701,313.7244094488189) translate(10 18.6)"/><path d="M172.52 368.72h40v40h-40z" stroke="#000" stroke-width="2" fill="#fff"/><use xlink:href="#i" transform="matrix(1,0,0,1,177.51968503937013,373.7244094488189) translate(13.025 18.6)"/><path d="M232.52 368.72h40v40h-40z" stroke="#000" stroke-width="2" fill="#fff"/><use xlink:href="#j" transform="matrix(1,0,0,1,237.5196850393701,373.7244094488189) translate(13.025 18.6)"/><path d="M292.52 368.72h40v40h-40z" stroke="#000" stroke-width="2" fill="#fff"/><use xlink:href="#k" transform="matrix(1,0,0,1,297.5196850393701,373.7244094488189) translate(10.5 18.6)"/><path d="M352.52 368.72h40v40h-40z" stroke="#000" stroke-width="2" fill="#fff"/><use xlink:href="#l" transform="matrix(1,0,0,1,357.5196850393701,373.7244094488189) translate(13.025 18.6)"/><path d="M170.63 485.04h40v40h-40z" stroke="#000" stroke-width="2" fill="#fff"/><use xlink:href="#m" transform="matrix(1,0,0,1,175.62992125984255,490.03937007874015) translate(8.524999999999999 18.6)"/><path d="M230.63 485.04h40v40h-40z" stroke="#000" stroke-width="2" fill="#fff"/><use xlink:href="#n" transform="matrix(1,0,0,1,235.62992125984255,490.03937007874015) translate(10.5 18.6)"/><path d="M170.63 545.04h40v40h-40z" stroke="#000" stroke-width="2" fill="#fff"/><use xlink:href="#o" transform="matrix(1,0,0,1,175.62992125984255,550.0393700787401) translate(10.5 18.6)"/><path d="M230.63 545.04h40v40h-40z" stroke="#000" stroke-width="2" fill="#fff"/><use xlink:href="#p" transform="matrix(1,0,0,1,235.62992125984255,550.0393700787401) translate(10.5 18.6)"/><path d="M473.54 248.72h160v160h-160z" stroke="#000" stroke-width="2" fill="#fff"/><use xlink:href="#q" transform="matrix(1,0,0,1,478.54330708661416,253.7244094488189) translate(6.775000000000006 78.60000000000001)"/><use xlink:href="#r" transform="matrix(1,0,0,1,478.54330708661416,253.7244094488189) translate(34.72500000000001 78.60000000000001)"/><use xlink:href="#s" transform="matrix(1,0,0,1,478.54330708661416,253.7244094488189) translate(50.22500000000001 78.60000000000001)"/><use xlink:href="#r" transform="matrix(1,0,0,1,478.54330708661416,253.7244094488189) translate(74.22500000000001 78.60000000000001)"/><use xlink:href="#t" transform="matrix(1,0,0,1,478.54330708661416,253.7244094488189) translate(89.72500000000001 78.60000000000001)"/><use xlink:href="#r" transform="matrix(1,0,0,1,478.54330708661416,253.7244094488189) translate(113.72500000000001 78.60000000000001)"/><use xlink:href="#u" transform="matrix(1,0,0,1,478.54330708661416,253.7244094488189) translate(129.22500000000002 78.60000000000001)"/><path d="M653.54 248.72h160v160h-160z" stroke="#000" stroke-width="2" fill="#fff"/><use xlink:href="#v" transform="matrix(1,0,0,1,658.5433070866142,253.7244094488189) translate(7.275000000000006 78.60000000000001)"/><use xlink:href="#r" transform="matrix(1,0,0,1,658.5433070866142,253.7244094488189) translate(35.22500000000001 78.60000000000001)"/><use xlink:href="#w" transform="matrix(1,0,0,1,658.5433070866142,253.7244094488189) translate(50.72500000000001 78.60000000000001)"/><use xlink:href="#r" transform="matrix(1,0,0,1,658.5433070866142,253.7244094488189) translate(73.72500000000001 78.60000000000001)"/><use xlink:href="#x" transform="matrix(1,0,0,1,658.5433070866142,253.7244094488189) translate(89.22500000000001 78.60000000000001)"/><use xlink:href="#r" transform="matrix(1,0,0,1,658.5433070866142,253.7244094488189) translate(108.22500000000001 78.60000000000001)"/><use xlink:href="#y" transform="matrix(1,0,0,1,658.5433070866142,253.7244094488189) translate(123.72500000000001 78.60000000000001)"/><path d="M833.54 248.72h160v160h-160z" stroke="#000" stroke-width="2" fill="#fff"/><use xlink:href="#z" transform="matrix(1,0,0,1,838.5433070866142,253.7244094488189) translate(4.775000000000006 78.60000000000001)"/><use xlink:href="#r" transform="matrix(1,0,0,1,838.5433070866142,253.7244094488189) translate(31.72500000000001 78.60000000000001)"/><use xlink:href="#A" transform="matrix(1,0,0,1,838.5433070866142,253.7244094488189) translate(47.22500000000001 78.60000000000001)"/><use xlink:href="#r" transform="matrix(1,0,0,1,838.5433070866142,253.7244094488189) translate(71.22500000000001 78.60000000000001)"/><use xlink:href="#B" transform="matrix(1,0,0,1,838.5433070866142,253.7244094488189) translate(86.72500000000001 78.60000000000001)"/><use xlink:href="#r" transform="matrix(1,0,0,1,838.5433070866142,253.7244094488189) translate(110.72500000000001 78.60000000000001)"/><use xlink:href="#C" transform="matrix(1,0,0,1,838.5433070866142,253.7244094488189) translate(126.22500000000001 78.60000000000001)"/><path d="M473.54 428.72h160v160h-160z" stroke="#000" stroke-width="2" fill="#fff"/><use xlink:href="#D" transform="matrix(1,0,0,1,478.54330708661416,433.72440944881896) translate(12.824999999999996 78.60000000000001)"/><use xlink:href="#r" transform="matrix(1,0,0,1,478.54330708661416,433.72440944881896) translate(40.775 78.60000000000001)"/><use xlink:href="#E" transform="matrix(1,0,0,1,478.54330708661416,433.72440944881896) translate(56.275 78.60000000000001)"/><use xlink:href="#r" transform="matrix(1,0,0,1,478.54330708661416,433.72440944881896) translate(75.275 78.60000000000001)"/><use xlink:href="#F" transform="matrix(1,0,0,1,478.54330708661416,433.72440944881896) translate(90.775 78.60000000000001)"/><use xlink:href="#r" transform="matrix(1,0,0,1,478.54330708661416,433.72440944881896) translate(108.725 78.60000000000001)"/><use xlink:href="#G" transform="matrix(1,0,0,1,478.54330708661416,433.72440944881896) translate(124.225 78.60000000000001)"/><path d="M653.54 428.72h160v160h-160z" stroke="#000" stroke-width="2" fill="#fff"/><g><use xlink:href="#H" transform="matrix(1,0,0,1,658.5433070866142,433.72440944881896) translate(10.299999999999997 78.60000000000001)"/><use xlink:href="#r" transform="matrix(1,0,0,1,658.5433070866142,433.72440944881896) translate(33.25 78.60000000000001)"/><use xlink:href="#I" transform="matrix(1,0,0,1,658.5433070866142,433.72440944881896) translate(48.75 78.60000000000001)"/><use xlink:href="#r" transform="matrix(1,0,0,1,658.5433070866142,433.72440944881896) translate(72.75 78.60000000000001)"/><use xlink:href="#J" transform="matrix(1,0,0,1,658.5433070866142,433.72440944881896) translate(88.25 78.60000000000001)"/><use xlink:href="#r" transform="matrix(1,0,0,1,658.5433070866142,433.72440944881896) translate(106.2 78.60000000000001)"/><use xlink:href="#K" transform="matrix(1,0,0,1,658.5433070866142,433.72440944881896) translate(121.7 78.60000000000001)"/></g><path d="M833.54 428.72h160v160h-160z" stroke="#000" stroke-width="2" fill="#fff"/><g><use xlink:href="#L" transform="matrix(1,0,0,1,838.5433070866142,433.72440944881896) translate(7.799999999999997 78.60000000000001)"/><use xlink:href="#r" transform="matrix(1,0,0,1,838.5433070866142,433.72440944881896) translate(35.75 78.60000000000001)"/><use xlink:href="#M" transform="matrix(1,0,0,1,838.5433070866142,433.72440944881896) translate(51.25 78.60000000000001)"/><use xlink:href="#r" transform="matrix(1,0,0,1,838.5433070866142,433.72440944881896) translate(75.25 78.60000000000001)"/><use xlink:href="#N" transform="matrix(1,0,0,1,838.5433070866142,433.72440944881896) translate(90.75 78.60000000000001)"/><use xlink:href="#r" transform="matrix(1,0,0,1,838.5433070866142,433.72440944881896) translate(113.75 78.60000000000001)"/><use xlink:href="#O" transform="matrix(1,0,0,1,838.5433070866142,433.72440944881896) translate(129.25 78.60000000000001)"/></g><path d="M462.83 239.24h181.42v181.42H462.83z" stroke="#f33040" stroke-width="2" fill-opacity="0"/><path d="M283.05 299.24H423.3v30.7h20.3" stroke="#f33040" stroke-width="2" fill="none"/><path d="M283.05 300.24h-1v-2h1zM458.6 329.95l-14.27 4.64v-9.28z" fill="#f33040"/><path d="M461.83 329.95l-18.5 6v-12zm-16.5 3.26l10.03-3.25-10.03-3.26z" fill="#f33040"/><path d="M281.63 535.6H423.3V329.94h20.3" stroke="#f33040" stroke-width="2" fill="none"/><path d="M281.63 536.6h-1v-2h1zM458.6 329.95l-14.27 4.64v-9.28z" fill="#f33040"/><path d="M461.83 329.95l-18.5 6v-12zm-16.5 3.26l10.03-3.25-10.03-3.26z" fill="#f33040"/><path d="M160.63 428.72h240v60h-240z" stroke="#000" stroke-opacity="0" stroke-width="2" fill="#fff" fill-opacity="0"/><g><use xlink:href="#P" transform="matrix(1,0,0,1,165.62992125984255,433.72440944881896) translate(0 28.6)"/></g><path d="M162.05 188.72h240v60h-240z" stroke="#000" stroke-opacity="0" stroke-width="2" fill="#fff" fill-opacity="0"/><g><use xlink:href="#Q" transform="matrix(1,0,0,1,167.04724409448824,193.7244094488189) translate(0 28.6)"/></g><path d="M462.83 188.72h240v60h-240z" stroke="#000" stroke-opacity="0" stroke-width="2" fill="#fff" fill-opacity="0"/><g><use xlink:href="#R" transform="matrix(1,0,0,1,467.8346456692913,193.7244094488189) translate(0 28.6)"/></g><defs><path d="M141-36C126-15 110 5 73 4 37 3 15-17 15-53c-1-64 63-63 125-63 3-35-9-54-41-54-24 1-41 7-42 31l-33-3c5-37 33-52 76-52 45 0 72 20 72 64v82c-1 20 7 32 28 27v20c-31 9-61-2-59-35zM48-53c0 20 12 33 32 33 41-3 63-29 60-74-43 2-92-5-92 41" id="S"/><use transform="matrix(0.05,0,0,0.05,0,0)" xlink:href="#S" id="a"/><path d="M115-194c53 0 69 39 70 98 0 66-23 100-70 100C84 3 66-7 56-30L54 0H23l1-261h32v101c10-23 28-34 59-34zm-8 174c40 0 45-34 45-75 0-40-5-75-45-74-42 0-51 32-51 76 0 43 10 73 51 73" id="T"/><use transform="matrix(0.05,0,0,0.05,0,0)" xlink:href="#T" id="b"/><path d="M96-169c-40 0-48 33-48 73s9 75 48 75c24 0 41-14 43-38l32 2c-6 37-31 61-74 61-59 0-76-41-82-99-10-93 101-131 147-64 4 7 5 14 7 22l-32 3c-4-21-16-35-41-35" id="U"/><use transform="matrix(0.05,0,0,0.05,0,0)" xlink:href="#U" id="c"/><path d="M85-194c31 0 48 13 60 33l-1-100h32l1 261h-30c-2-10 0-23-3-31C134-8 116 4 85 4 32 4 16-35 15-94c0-66 23-100 70-100zm9 24c-40 0-46 34-46 75 0 40 6 74 45 74 42 0 51-32 51-76 0-42-9-74-50-73" id="V"/><use transform="matrix(0.05,0,0,0.05,0,0)" xlink:href="#V" id="d"/><path d="M100-194c63 0 86 42 84 106H49c0 40 14 67 53 68 26 1 43-12 49-29l28 8c-11 28-37 45-77 45C44 4 14-33 15-96c1-61 26-98 85-98zm52 81c6-60-76-77-97-28-3 7-6 17-6 28h103" id="W"/><use transform="matrix(0.05,0,0,0.05,0,0)" xlink:href="#W" id="e"/><path d="M101-234c-31-9-42 10-38 44h38v23H63V0H32v-167H5v-23h27c-7-52 17-82 69-68v24" id="X"/><use transform="matrix(0.05,0,0,0.05,0,0)" xlink:href="#X" id="f"/><path d="M177-190C167-65 218 103 67 71c-23-6-38-20-44-43l32-5c15 47 100 32 89-28v-30C133-14 115 1 83 1 29 1 15-40 15-95c0-56 16-97 71-98 29-1 48 16 59 35 1-10 0-23 2-32h30zM94-22c36 0 50-32 50-73 0-42-14-75-50-75-39 0-46 34-46 75s6 73 46 73" id="Y"/><use transform="matrix(0.05,0,0,0.05,0,0)" xlink:href="#Y" id="g"/><path d="M106-169C34-169 62-67 57 0H25v-261h32l-1 103c12-21 28-36 61-36 89 0 53 116 60 194h-32v-121c2-32-8-49-39-48" id="Z"/><use transform="matrix(0.05,0,0,0.05,0,0)" xlink:href="#Z" id="h"/><path d="M24-231v-30h32v30H24zM24 0v-190h32V0H24" id="aa"/><use transform="matrix(0.05,0,0,0.05,0,0)" xlink:href="#aa" id="i"/><path d="M24-231v-30h32v30H24zM-9 49c24 4 33-6 33-30v-209h32V24c2 40-23 58-65 49V49" id="ab"/><use transform="matrix(0.05,0,0,0.05,0,0)" xlink:href="#ab" id="j"/><path d="M143 0L79-87 56-68V0H24v-261h32v163l83-92h37l-77 82L181 0h-38" id="ac"/><use transform="matrix(0.05,0,0,0.05,0,0)" xlink:href="#ac" id="k"/><path d="M24 0v-261h32V0H24" id="ad"/><use transform="matrix(0.05,0,0,0.05,0,0)" xlink:href="#ad" id="l"/><path d="M206 0h-36l-40-164L89 0H53L-1-190h32L70-26l43-164h34l41 164 42-164h31" id="ae"/><use transform="matrix(0.05,0,0,0.05,0,0)" xlink:href="#ae" id="m"/><path d="M141 0L90-78 38 0H4l68-98-65-92h35l48 74 47-74h35l-64 92 68 98h-35" id="af"/><use transform="matrix(0.05,0,0,0.05,0,0)" xlink:href="#af" id="n"/><path d="M179-190L93 31C79 59 56 82 12 73V49c39 6 53-20 64-50L1-190h34L92-34l54-156h33" id="ag"/><use transform="matrix(0.05,0,0,0.05,0,0)" xlink:href="#ag" id="o"/><path d="M9 0v-24l116-142H16v-24h144v24L44-24h123V0H9" id="ah"/><use transform="matrix(0.05,0,0,0.05,0,0)" xlink:href="#ah" id="p"/><g id="q"><use transform="matrix(0.05,0,0,0.05,0,0)" xlink:href="#S"/><use transform="matrix(0.05,0,0,0.05,10,0)" xlink:href="#ae"/></g><path d="M118-107v75H92v-75H18v-26h74v-75h26v75h74v26h-74" id="ai"/><use transform="matrix(0.05,0,0,0.05,0,0)" xlink:href="#ai" id="r"/><g id="s"><use transform="matrix(0.05,0,0,0.05,0,0)" xlink:href="#T"/><use transform="matrix(0.05,0,0,0.05,10,0)" xlink:href="#af"/></g><g id="t"><use transform="matrix(0.05,0,0,0.05,0,0)" xlink:href="#W"/><use transform="matrix(0.05,0,0,0.05,10,0)" xlink:href="#ag"/></g><g id="u"><use transform="matrix(0.05,0,0,0.05,0,0)" xlink:href="#X"/><use transform="matrix(0.05,0,0,0.05,5,0)" xlink:href="#ah"/></g><g id="v"><use transform="matrix(0.05,0,0,0.05,0,0)" xlink:href="#T"/><use transform="matrix(0.05,0,0,0.05,10,0)" xlink:href="#ae"/></g><g id="w"><use transform="matrix(0.05,0,0,0.05,0,0)" xlink:href="#U"/><use transform="matrix(0.05,0,0,0.05,9,0)" xlink:href="#af"/></g><g id="x"><use transform="matrix(0.05,0,0,0.05,0,0)" xlink:href="#X"/><use transform="matrix(0.05,0,0,0.05,5,0)" xlink:href="#ag"/></g><g id="y"><use transform="matrix(0.05,0,0,0.05,0,0)" xlink:href="#Y"/><use transform="matrix(0.05,0,0,0.05,10,0)" xlink:href="#ah"/></g><g id="z"><use transform="matrix(0.05,0,0,0.05,0,0)" xlink:href="#U"/><use transform="matrix(0.05,0,0,0.05,9,0)" xlink:href="#ae"/></g><g id="A"><use transform="matrix(0.05,0,0,0.05,0,0)" xlink:href="#V"/><use transform="matrix(0.05,0,0,0.05,10,0)" xlink:href="#af"/></g><g id="B"><use transform="matrix(0.05,0,0,0.05,0,0)" xlink:href="#Y"/><use transform="matrix(0.05,0,0,0.05,10,0)" xlink:href="#ag"/></g><g id="C"><use transform="matrix(0.05,0,0,0.05,0,0)" xlink:href="#Z"/><use transform="matrix(0.05,0,0,0.05,10,0)" xlink:href="#ah"/></g><g id="D"><use transform="matrix(0.05,0,0,0.05,0,0)" xlink:href="#W"/><use transform="matrix(0.05,0,0,0.05,10,0)" xlink:href="#ae"/></g><g id="E"><use transform="matrix(0.05,0,0,0.05,0,0)" xlink:href="#X"/><use transform="matrix(0.05,0,0,0.05,5,0)" xlink:href="#af"/></g><g id="F"><use transform="matrix(0.05,0,0,0.05,0,0)" xlink:href="#aa"/><use transform="matrix(0.05,0,0,0.05,3.95,0)" xlink:href="#ag"/></g><g id="G"><use transform="matrix(0.05,0,0,0.05,0,0)" xlink:href="#ab"/><use transform="matrix(0.05,0,0,0.05,3.95,0)" xlink:href="#ah"/></g><g id="H"><use transform="matrix(0.05,0,0,0.05,0,0)" xlink:href="#X"/><use transform="matrix(0.05,0,0,0.05,5,0)" xlink:href="#ae"/></g><g id="I"><use transform="matrix(0.05,0,0,0.05,0,0)" xlink:href="#Y"/><use transform="matrix(0.05,0,0,0.05,10,0)" xlink:href="#af"/></g><g id="J"><use transform="matrix(0.05,0,0,0.05,0,0)" xlink:href="#ab"/><use transform="matrix(0.05,0,0,0.05,3.95,0)" xlink:href="#ag"/></g><g id="K"><use transform="matrix(0.05,0,0,0.05,0,0)" xlink:href="#ac"/><use transform="matrix(0.05,0,0,0.05,9,0)" xlink:href="#ah"/></g><g id="L"><use transform="matrix(0.05,0,0,0.05,0,0)" xlink:href="#Y"/><use transform="matrix(0.05,0,0,0.05,10,0)" xlink:href="#ae"/></g><g id="M"><use transform="matrix(0.05,0,0,0.05,0,0)" xlink:href="#Z"/><use transform="matrix(0.05,0,0,0.05,10,0)" xlink:href="#af"/></g><g id="N"><use transform="matrix(0.05,0,0,0.05,0,0)" xlink:href="#ac"/><use transform="matrix(0.05,0,0,0.05,9,0)" xlink:href="#ag"/></g><g id="O"><use transform="matrix(0.05,0,0,0.05,0,0)" xlink:href="#ad"/><use transform="matrix(0.05,0,0,0.05,3.95,0)" xlink:href="#ah"/></g><path d="M194 0L95-120 63-95V0H30v-248h33v124l119-124h40L117-140 236 0h-42" id="aj"/><path d="M114-163C36-179 61-72 57 0H25l-1-190h30c1 12-1 29 2 39 6-27 23-49 58-41v29" id="ak"/><path d="M117-194c89-4 53 116 60 194h-32v-121c0-31-8-49-39-48C34-167 62-67 57 0H25l-1-190h30c1 10-1 24 2 32 11-22 29-35 61-36" id="al"/><g id="P"><use transform="matrix(0.05,0,0,0.05,0,0)" xlink:href="#aj"/><use transform="matrix(0.05,0,0,0.05,12,0)" xlink:href="#W"/><use transform="matrix(0.05,0,0,0.05,22,0)" xlink:href="#ak"/><use transform="matrix(0.05,0,0,0.05,27.950000000000003,0)" xlink:href="#al"/><use transform="matrix(0.05,0,0,0.05,37.95,0)" xlink:href="#W"/><use transform="matrix(0.05,0,0,0.05,47.95,0)" xlink:href="#ad"/></g><path d="M33 0v-248h34V0H33" id="am"/><path d="M115-194c55 1 70 41 70 98S169 2 115 4C84 4 66-9 55-30l1 105H24l-1-265h31l2 30c10-21 28-34 59-34zm-8 174c40 0 45-34 45-75s-6-73-45-74c-42 0-51 32-51 76 0 43 10 73 51 73" id="an"/><path d="M84 4C-5 8 30-112 23-190h32v120c0 31 7 50 39 49 72-2 45-101 50-169h31l1 190h-30c-1-10 1-25-2-33-11 22-28 36-60 37" id="ao"/><path d="M59-47c-2 24 18 29 38 22v24C64 9 27 4 27-40v-127H5v-23h24l9-43h21v43h35v23H59v120" id="ap"/><g id="Q"><use transform="matrix(0.05,0,0,0.05,0,0)" xlink:href="#am"/><use transform="matrix(0.05,0,0,0.05,5,0)" xlink:href="#al"/><use transform="matrix(0.05,0,0,0.05,15,0)" xlink:href="#an"/><use transform="matrix(0.05,0,0,0.05,25,0)" xlink:href="#ao"/><use transform="matrix(0.05,0,0,0.05,35,0)" xlink:href="#ap"/></g><path d="M140-251c81 0 123 46 123 126C263-46 219 4 140 4 59 4 17-45 17-125s42-126 123-126zm0 227c63 0 89-41 89-101s-29-99-89-99c-61 0-89 39-89 99S79-25 140-24" id="aq"/><g id="R"><use transform="matrix(0.05,0,0,0.05,0,0)" xlink:href="#aq"/><use transform="matrix(0.05,0,0,0.05,14,0)" xlink:href="#ao"/><use transform="matrix(0.05,0,0,0.05,24,0)" xlink:href="#ap"/><use transform="matrix(0.05,0,0,0.05,29,0)" xlink:href="#an"/><use transform="matrix(0.05,0,0,0.05,39,0)" xlink:href="#ao"/><use transform="matrix(0.05,0,0,0.05,49,0)" xlink:href="#ap"/></g></defs></g></svg>