<svg xmlns="http://www.w3.org/2000/svg" xmlns:xlink="http://www.w3.org/1999/xlink" xmlns:lucid="lucid" width="606.93" height="228.98"><g transform="translate(-42.99212598428131 -17.79527559049894)" lucid:page-tab-id="mUAK1ixlELK~"><path d="M251.97 69.3c0 17.4-14.1 31.5-31.5 31.5s-31.5-14.1-31.5-31.5 14.1-31.5 31.5-31.5 31.5 14.1 31.5 31.5z" stroke="#000" stroke-width="2" fill="#fff"/><use xlink:href="#a" transform="matrix(1,0,0,1,193.97637795275588,42.79527559049894) translate(14 30.1)"/><path d="M503.94 69.3c0 17.4-14.1 31.5-31.5 31.5s-31.5-14.1-31.5-31.5 14.1-31.5 31.5-31.5 31.5 14.1 31.5 31.5z" stroke="#000" stroke-width="2" fill="#fff"/><use xlink:href="#b" transform="matrix(1,0,0,1,445.944881889705,42.79527559049895) translate(14 30.1)"/><path d="M125.98 195.28c0 17.4-14.1 31.5-31.5 31.5S63 212.67 63 195.27s14.1-31.5 31.5-31.5 31.5 14.1 31.5 31.5z" stroke="#000" stroke-width="2" fill="#fff"/><use xlink:href="#a" transform="matrix(1,0,0,1,67.9921259842813,168.7795275590551) translate(14 30.1)"/><path d="M251.97 195.28c0 17.4-14.1 31.5-31.5 31.5s-31.5-14.1-31.5-31.5 14.1-31.5 31.5-31.5 31.5 14.1 31.5 31.5z" stroke="#000" stroke-width="2" fill="#fff"/><use xlink:href="#c" transform="matrix(1,0,0,1,193.97637795275588,168.7795275590551) translate(14 30.1)"/><path d="M377.95 195.28c0 17.4-14.1 31.5-31.5 31.5s-31.5-14.1-31.5-31.5 14.1-31.5 31.5-31.5 31.5 14.1 31.5 31.5z" stroke="#000" stroke-width="2" fill="#fff"/><use xlink:href="#d" transform="matrix(1,0,0,1,319.96062992123046,168.7795275590551) translate(14 30.1)"/><path d="M503.94 195.28c0 17.4-14.1 31.5-31.5 31.5s-31.5-14.1-31.5-31.5 14.1-31.5 31.5-31.5 31.5 14.1 31.5 31.5z" stroke="#000" stroke-width="2" fill="#fff"/><use xlink:href="#b" transform="matrix(1,0,0,1,445.944881889705,168.7795275590551) translate(14 30.1)"/><path d="M629.92 195.28c0 17.4-14.1 31.5-31.5 31.5s-31.5-14.1-31.5-31.5 14.1-31.5 31.5-31.5 31.5 14.1 31.5 31.5z" stroke="#000" stroke-width="2" fill="#fff"/><use xlink:href="#e" transform="matrix(1,0,0,1,571.9291338581795,168.7795275590551) translate(14 30.1)"/><path d="M346.46 162.78l109.57-53.04" stroke="#000" stroke-width="2" fill="none"/><path d="M346.9 163.68l-.25.1h-.2l-2.75.2-.38-.8 2.7-1.3zM458.7 113.6l-4.03-8.36 14.86-2.04z"/><path d="M458.4 115.26l-5.23-10.82 19.27-2.65zm-2.23-9.2l2.84 5.85 7.62-7.3z"/><path d="M346.46 162.78L236.9 109.74" stroke="#000" stroke-width="2" fill="none"/><path d="M349.6 163.18l-.4.82-2.74-.22h-.2l-.24-.1.87-1.8zM238.25 105.24l-4.04 8.35-10.8-10.4z"/><path d="M239.75 104.44l-5.24 10.82-14.03-13.47zm-5.84 7.47l2.85-5.85-10.45-1.44z"/><path d="M220.47 162.78v-42.75" stroke="#000" stroke-width="2" fill="none"/><path d="M221.47 163.86l-1-.08-1 .07v-1.07h2zM225.1 119.3h-9.26l4.63-14.27z"/><path d="M226.48 120.3h-12.02l6-18.5zm-9.27-2h6.53l-3.26-10.04z"/><path d="M472.44 162.78v-42.75" stroke="#000" stroke-width="2" fill="none"/><path d="M473.44 163.86l-1-.08-1 .07v-1.07h2zM477.08 119.3h-9.27l4.64-14.27z"/><path d="M478.45 120.3h-12.02l6-18.5zm-9.27-2h6.52l-3.26-10.04z"/><path d="M94.5 162.78l109.56-53.04" stroke="#000" stroke-width="2" fill="none"/><path d="M94.92 163.68l-.24.1h-.2l-2.75.2-.38-.8 2.7-1.3zM206.74 113.6l-4.04-8.36 14.86-2.04z"/><path d="M206.44 115.26l-5.24-10.82 19.27-2.65zm-2.24-9.2l2.84 5.85 7.6-7.3z"/><path d="M598.43 162.78l-109.58-53.04" stroke="#000" stroke-width="2" fill="none"/><path d="M601.56 163.18l-.4.82-2.73-.22h-.2l-.24-.1.86-1.8zM490.2 105.24l-4.03 8.35-10.82-10.4z"/><path d="M491.7 104.44l-5.23 10.82-14.03-13.47zm-5.83 7.47l2.84-5.85-10.43-1.44z"/><defs><path d="M101-251c68 0 85 55 85 127S166 4 100 4C33 4 14-52 14-124c0-73 17-127 87-127zm-1 229c47 0 54-49 54-102s-4-102-53-102c-51 0-55 48-55 102 0 53 5 102 54 102" id="f"/><path d="M33 0v-38h34V0H33" id="g"/><path d="M134-131c28 9 52 24 51 62-1 50-34 73-85 73S17-19 16-69c0-36 21-54 49-61-75-25-45-126 34-121 46 3 78 18 79 63 0 33-17 51-44 57zm-34-11c31 1 46-15 46-44 0-28-17-43-47-42-29 0-46 13-45 42 1 28 16 44 46 44zm1 122c35 0 51-18 51-52 0-30-18-46-53-46-33 0-51 17-51 47 0 34 19 51 53 51" id="h"/><g id="a"><use transform="matrix(0.05,0,0,0.05,0,0)" xlink:href="#f"/><use transform="matrix(0.05,0,0,0.05,10,0)" xlink:href="#g"/><use transform="matrix(0.05,0,0,0.05,15,0)" xlink:href="#h"/></g><path d="M155-56V0h-30v-56H8v-25l114-167h33v167h35v25h-35zm-30-156c-27 46-58 90-88 131h88v-131" id="i"/><g id="b"><use transform="matrix(0.05,0,0,0.05,0,0)" xlink:href="#f"/><use transform="matrix(0.05,0,0,0.05,10,0)" xlink:href="#g"/><use transform="matrix(0.05,0,0,0.05,15,0)" xlink:href="#i"/></g><path d="M101-251c82-7 93 87 43 132L82-64C71-53 59-42 53-27h129V0H18c2-99 128-94 128-182 0-28-16-43-45-43s-46 15-49 41l-32-3c6-41 34-60 81-64" id="j"/><g id="c"><use transform="matrix(0.05,0,0,0.05,0,0)" xlink:href="#f"/><use transform="matrix(0.05,0,0,0.05,10,0)" xlink:href="#g"/><use transform="matrix(0.05,0,0,0.05,15,0)" xlink:href="#j"/></g><path d="M126-127c33 6 58 20 58 59 0 88-139 92-164 29-3-8-5-16-6-25l32-3c6 27 21 44 54 44 32 0 52-15 52-46 0-38-36-46-79-43v-28c39 1 72-4 72-42 0-27-17-43-46-43-28 0-47 15-49 41l-32-3c6-42 35-63 81-64 48-1 79 21 79 65 0 36-21 52-52 59" id="k"/><g id="d"><use transform="matrix(0.05,0,0,0.05,0,0)" xlink:href="#f"/><use transform="matrix(0.05,0,0,0.05,10,0)" xlink:href="#g"/><use transform="matrix(0.05,0,0,0.05,15,0)" xlink:href="#k"/></g><path d="M27 0v-27h64v-190l-56 39v-29l58-41h29v221h61V0H27" id="l"/><g id="e"><use transform="matrix(0.05,0,0,0.05,0,0)" xlink:href="#f"/><use transform="matrix(0.05,0,0,0.05,10,0)" xlink:href="#g"/><use transform="matrix(0.05,0,0,0.05,15,0)" xlink:href="#l"/></g></defs></g></svg>