<svg xmlns="http://www.w3.org/2000/svg" xmlns:xlink="http://www.w3.org/1999/xlink" xmlns:lucid="lucid" width="606.93" height="228.98"><g transform="translate(-42.9921259842813 -17.79527559049893)" lucid:page-tab-id="RZCK5JIo.02b"><path d="M125.98 69.3c0 17.4-14.1 31.5-31.5 31.5S63 86.7 63 69.3s14.1-31.5 31.5-31.5S126 51.9 126 69.3z" stroke="#000" stroke-width="2" fill="#fff"/><use xlink:href="#a" transform="matrix(1,0,0,1,67.9921259842813,42.79527559049893) translate(18.5 30.1)"/><path d="M251.97 69.3c0 17.4-14.1 31.5-31.5 31.5s-31.5-14.1-31.5-31.5 14.1-31.5 31.5-31.5 31.5 14.1 31.5 31.5z" stroke="#000" stroke-width="2" fill="#fff"/><use xlink:href="#b" transform="matrix(1,0,0,1,193.9763779528147,42.79527559049895) translate(18.5 30.1)"/><path d="M377.95 69.3c0 17.4-14.1 31.5-31.5 31.5s-31.5-14.1-31.5-31.5 14.1-31.5 31.5-31.5 31.5 14.1 31.5 31.5z" stroke="#000" stroke-width="2" fill="#fff"/><use xlink:href="#c" transform="matrix(1,0,0,1,319.96062992125985,42.79527559049893) translate(18.5 30.1)"/><path d="M503.94 69.3c0 17.4-14.1 31.5-31.5 31.5s-31.5-14.1-31.5-31.5 14.1-31.5 31.5-31.5 31.5 14.1 31.5 31.5z" stroke="#000" stroke-width="2" fill="#fff"/><use xlink:href="#d" transform="matrix(1,0,0,1,445.944881889705,42.79527559049895) translate(18.5 30.1)"/><path d="M629.92 69.3c0 17.4-14.1 31.5-31.5 31.5s-31.5-14.1-31.5-31.5 14.1-31.5 31.5-31.5 31.5 14.1 31.5 31.5z" stroke="#000" stroke-width="2" fill="#fff"/><use xlink:href="#e" transform="matrix(1,0,0,1,571.9291338581795,42.79527559049893) translate(18.5 30.1)"/><path d="M125.98 195.28c0 17.4-14.1 31.5-31.5 31.5S63 212.67 63 195.27s14.1-31.5 31.5-31.5 31.5 14.1 31.5 31.5z" stroke="#000" stroke-width="2" fill="#fff"/><use xlink:href="#f" transform="matrix(1,0,0,1,67.9921259842813,168.7795275590551) translate(18 30.1)"/><path d="M251.97 195.28c0 17.4-14.1 31.5-31.5 31.5s-31.5-14.1-31.5-31.5 14.1-31.5 31.5-31.5 31.5 14.1 31.5 31.5z" stroke="#000" stroke-width="2" fill="#fff"/><use xlink:href="#g" transform="matrix(1,0,0,1,193.97637795275588,168.7795275590551) translate(18 30.1)"/><path d="M377.95 195.28c0 17.4-14.1 31.5-31.5 31.5s-31.5-14.1-31.5-31.5 14.1-31.5 31.5-31.5 31.5 14.1 31.5 31.5z" stroke="#000" stroke-width="2" fill="#fff"/><use xlink:href="#h" transform="matrix(1,0,0,1,319.96062992123046,168.7795275590551) translate(18 30.1)"/><path d="M503.94 195.28c0 17.4-14.1 31.5-31.5 31.5s-31.5-14.1-31.5-31.5 14.1-31.5 31.5-31.5 31.5 14.1 31.5 31.5z" stroke="#000" stroke-width="2" fill="#fff"/><use xlink:href="#i" transform="matrix(1,0,0,1,445.944881889705,168.7795275590551) translate(18 30.1)"/><path d="M629.92 195.28c0 17.4-14.1 31.5-31.5 31.5s-31.5-14.1-31.5-31.5 14.1-31.5 31.5-31.5 31.5 14.1 31.5 31.5z" stroke="#000" stroke-width="2" fill="#fff"/><use xlink:href="#j" transform="matrix(1,0,0,1,571.9291338581795,168.7795275590551) translate(18 30.1)"/><path d="M94.5 162.78v-42.75" stroke="#000" stroke-width="2" fill="none"/><path d="M95.5 163.86l-1-.08-1 .07v-1.07h2zM99.12 119.3h-9.27l4.64-14.27z"/><path d="M100.5 120.3H88.48l6-18.5zm-9.27-2h6.52l-3.26-10.04z"/><path d="M220.47 162.78v-42.75" stroke="#000" stroke-width="2" fill="none"/><path d="M221.47 163.86l-1-.08-1 .07v-1.07h2zM225.1 119.3h-9.26l4.63-14.27z"/><path d="M226.48 120.3h-12.02l6-18.5zm-9.27-2h6.53l-3.26-10.04z"/><path d="M94.5 162.78l109.56-53.04" stroke="#000" stroke-width="2" fill="none"/><path d="M94.92 163.68l-.24.1h-.2l-2.75.2-.38-.8 2.7-1.3zM206.74 113.6l-4.04-8.36 14.86-2.04z"/><path d="M206.44 115.26l-5.24-10.82 19.27-2.65zm-2.24-9.2l2.84 5.85 7.6-7.3z"/><path d="M220.47 162.78l109.57-53.04" stroke="#000" stroke-width="2" fill="none"/><path d="M220.9 163.68l-.23.1h-.2l-2.75.2-.38-.8 2.7-1.3zM332.72 113.6l-4.04-8.36 14.86-2.04z"/><path d="M332.42 115.26l-5.24-10.82 19.28-2.65zm-2.24-9.2l2.84 5.85 7.6-7.3z"/><path d="M346.46 162.78v-42.75" stroke="#000" stroke-width="2" fill="none"/><path d="M347.46 163.86l-1-.08-1 .07v-1.07h2zM351.1 119.3h-9.28l4.64-14.27z"/><path d="M352.47 120.3h-12.02l6-18.5zm-9.27-2h6.52l-3.26-10.04z"/><path d="M472.44 162.78v-42.75" stroke="#000" stroke-width="2" fill="none"/><path d="M473.44 163.86l-1-.08-1 .07v-1.07h2zM477.08 119.3h-9.27l4.64-14.27z"/><path d="M478.45 120.3h-12.02l6-18.5zm-9.27-2h6.52l-3.26-10.04z"/><path d="M346.46 162.78l109.57-53.04" stroke="#000" stroke-width="2" fill="none"/><path d="M346.9 163.68l-.25.1h-.2l-2.75.2-.38-.8 2.7-1.3zM458.7 113.6l-4.03-8.36 14.86-2.04z"/><path d="M458.4 115.26l-5.23-10.82 19.27-2.65zm-2.23-9.2l2.84 5.85 7.62-7.3z"/><path d="M472.44 162.78L582 109.74" stroke="#000" stroke-width="2" fill="none"/><path d="M472.88 163.68l-.25.1h-.2l-2.74.2-.4-.8 2.7-1.3zM584.7 113.6l-4.05-8.36 14.86-2.04z"/><path d="M584.4 115.26l-5.25-10.82 19.28-2.65zm-2.25-9.2l2.84 5.85 7.6-7.3z"/><path d="M598.43 162.78v-42.75" stroke="#000" stroke-width="2" fill="none"/><path d="M599.43 163.86l-1-.08-1 .07v-1.07h2zM603.06 119.3h-9.27l4.63-14.27z"/><path d="M604.44 120.3H592.4l6.03-18.5zm-9.27-2h6.5l-3.24-10.04z"/><path d="M472.44 162.78l-109.57-53.04" stroke="#000" stroke-width="2" fill="none"/><path d="M475.58 163.18l-.4.82-2.74-.22h-.2l-.23-.1.88-1.8zM364.23 105.24l-4.04 8.35-10.83-10.4z"/><path d="M365.73 104.44l-5.24 10.82-14.04-13.47zm-5.84 7.47l2.83-5.85-10.45-1.44z"/><path d="M346.46 162.78L236.9 109.74" stroke="#000" stroke-width="2" fill="none"/><path d="M349.6 163.18l-.4.82-2.74-.22h-.2l-.24-.1.87-1.8zM238.25 105.24l-4.04 8.35-10.8-10.4z"/><path d="M239.75 104.44l-5.24 10.82-14.03-13.47zm-5.84 7.47l2.85-5.85-10.45-1.44z"/><path d="M220.47 162.78L110.9 109.74" stroke="#000" stroke-width="2" fill="none"/><path d="M223.6 163.18l-.4.82-2.73-.22h-.2l-.23-.1.87-1.8zM112.26 105.24l-4.04 8.35-10.82-10.4z"/><path d="M113.76 104.44l-5.24 10.82L94.5 101.8zm-5.84 7.47l2.84-5.85-10.45-1.44z"/><path d="M598.43 162.78l-109.58-53.04" stroke="#000" stroke-width="2" fill="none"/><path d="M601.56 163.18l-.4.82-2.73-.22h-.2l-.24-.1.86-1.8zM490.2 105.24l-4.03 8.35-10.82-10.4z"/><path d="M491.7 104.44l-5.23 10.82-14.03-13.47zm-5.83 7.47l2.84-5.85-10.43-1.44z"/><path d="M94.5 162.78l234.23-56.7" stroke="#000" stroke-width="2" fill="none"/><path d="M94.72 163.75l-.15.04-.08-.02-2.8.2-.36-1.47 2.9-.7zM343.3 102.55l-12.76 7.86-2.18-9z"/><path d="M346.46 101.8L329.9 112l-2.84-11.7zm-15.28 7.04l9-5.53-10.53-.8z"/><path d="M220.47 162.78l234.25-56.7" stroke="#000" stroke-width="2" fill="none"/><path d="M220.7 163.75l-.15.04-.08-.02-2.8.2-.35-1.47 2.92-.7zM469.3 102.55l-12.78 7.86-2.18-9z"/><path d="M472.44 101.8L455.87 112l-2.83-11.7zm-15.27 7.04l8.98-5.53-10.5-.8z"/><path d="M346.46 162.78l234.24-56.7" stroke="#000" stroke-width="2" fill="none"/><path d="M346.7 163.75l-.16.04-.08-.02-2.8.2-.35-1.47 2.92-.7zM595.28 102.55l-12.78 7.86-2.18-9z"/><path d="M598.43 101.8L581.86 112l-2.83-11.7zm-15.28 7.04l8.98-5.53-10.5-.8z"/><path d="M598.43 162.78l-234.25-56.7" stroke="#000" stroke-width="2" fill="none"/><path d="M601.58 162.5l-.36 1.5-2.8-.22h-.08l-.15-.03.46-1.94zM362.38 110.4l-12.78-7.85 14.96-1.15z"/><path d="M363.03 112l-16.57-10.2 19.4-1.5zm-10.28-8.7l8.98 5.54 1.53-6.34z"/><path d="M472.44 162.78l-234.24-56.7" stroke="#000" stroke-width="2" fill="none"/><path d="M475.6 162.5l-.37 1.5-2.8-.22h-.07l-.15-.03.48-1.94zM236.4 110.4l-12.78-7.85 14.95-1.15z"/><path d="M237.04 112l-16.57-10.2 19.4-1.5zm-10.28-8.7l8.98 5.54 1.54-6.34z"/><path d="M346.46 162.78l-234.25-56.7" stroke="#000" stroke-width="2" fill="none"/><path d="M349.6 162.5l-.35 1.5-2.8-.22h-.08l-.15-.03.47-1.94zM110.4 110.4l-12.77-7.85 14.96-1.15z"/><path d="M111.06 112L94.5 101.8l19.4-1.5zm-10.28-8.7l8.98 5.54 1.53-6.34z"/><path d="M220.47 162.78l359.95-58.1" stroke="#000" stroke-width="2" fill="none"/><path d="M220.63 163.76l-.1.02h-.06l-2.84.2-.28-1.7 2.96-.5zM595.23 102.3l-13.34 6.85-1.5-9.15z"/><path d="M598.43 101.8l-17.3 8.87-1.93-11.87zm-15.78 5.84l9.4-4.82-10.44-1.62z"/><path d="M472.44 162.78l-359.95-58.1" stroke="#000" stroke-width="2" fill="none"/><path d="M475.56 162.27l-.28 1.73-2.84-.22h-.04l-.12-.02.32-1.97zM111.03 109.15l-13.35-6.84 14.82-2.3z"/><path d="M111.8 110.67l-17.3-8.88 19.2-3zm-10.92-7.85l9.38 4.82 1.04-6.44z"/><path d="M598.43 162.78l-485.84-58.8" stroke="#000" stroke-width="2" fill="none"/><path d="M601.52 162.14l-.22 1.87-2.87-.22h-.13l.25-2zM111.3 108.5l-13.6-6.32 14.72-2.9z"/><path d="M112.13 109.98l-17.64-8.2 19.08-3.74zm-11.22-7.4l9.58 4.43.78-6.46z"/><path d="M94.5 162.78l485.82-58.8" stroke="#000" stroke-width="2" fill="none"/><path d="M94.6 163.77h-.1l-2.9.2-.2-1.83 2.97-.36zM595.2 102.18l-13.6 6.3-1.1-9.2z"/><path d="M598.43 101.8l-17.65 8.18-1.44-11.94zm-16 5.2l9.57-4.43-10.35-2.03z"/><path d="M94.5 162.78l359.94-58.1" stroke="#000" stroke-width="2" fill="none"/><path d="M94.65 163.76l-.12.02h-.04l-2.86.2-.27-1.7 2.96-.5zM469.25 102.3l-13.35 6.85-1.48-9.15z"/><path d="M472.44 101.8l-17.3 8.87-1.92-11.87zm-15.77 5.84l9.38-4.82-10.42-1.62z"/><path d="M598.43 162.78l-359.95-58.1" stroke="#000" stroke-width="2" fill="none"/><path d="M601.55 162.27l-.28 1.73-2.84-.22h-.05l-.1-.02.3-1.97zM237 109.15l-13.33-6.84 14.82-2.3z"/><path d="M237.78 110.67l-17.3-8.88 19.22-3zm-10.92-7.85l9.38 4.82 1.04-6.44z"/><defs><path d="M135-143c-3-34-86-38-87 0 15 53 115 12 119 90S17 21 10-45l28-5c4 36 97 45 98 0-10-56-113-15-118-90-4-57 82-63 122-42 12 7 21 19 24 35" id="k"/><path d="M27 0v-27h64v-190l-56 39v-29l58-41h29v221h61V0H27" id="l"/><g id="a"><use transform="matrix(0.05,0,0,0.05,0,0)" xlink:href="#k"/><use transform="matrix(0.034999999999999996,0,0,0.034999999999999996,9,2.5199999999999996)" xlink:href="#l"/></g><path d="M101-251c82-7 93 87 43 132L82-64C71-53 59-42 53-27h129V0H18c2-99 128-94 128-182 0-28-16-43-45-43s-46 15-49 41l-32-3c6-41 34-60 81-64" id="m"/><g id="b"><use transform="matrix(0.05,0,0,0.05,0,0)" xlink:href="#k"/><use transform="matrix(0.034999999999999996,0,0,0.034999999999999996,9,2.5199999999999996)" xlink:href="#m"/></g><path d="M126-127c33 6 58 20 58 59 0 88-139 92-164 29-3-8-5-16-6-25l32-3c6 27 21 44 54 44 32 0 52-15 52-46 0-38-36-46-79-43v-28c39 1 72-4 72-42 0-27-17-43-46-43-28 0-47 15-49 41l-32-3c6-42 35-63 81-64 48-1 79 21 79 65 0 36-21 52-52 59" id="n"/><g id="c"><use transform="matrix(0.05,0,0,0.05,0,0)" xlink:href="#k"/><use transform="matrix(0.034999999999999996,0,0,0.034999999999999996,9,2.5199999999999996)" xlink:href="#n"/></g><path d="M155-56V0h-30v-56H8v-25l114-167h33v167h35v25h-35zm-30-156c-27 46-58 90-88 131h88v-131" id="o"/><g id="d"><use transform="matrix(0.05,0,0,0.05,0,0)" xlink:href="#k"/><use transform="matrix(0.034999999999999996,0,0,0.034999999999999996,9,2.5199999999999996)" xlink:href="#o"/></g><path d="M54-142c48-35 137-8 131 61C196 18 31 33 14-55l32-4c7 23 22 37 52 37 35-1 51-22 54-58 4-55-73-65-99-34H22l8-134h141v27H59" id="p"/><g id="e"><use transform="matrix(0.05,0,0,0.05,0,0)" xlink:href="#k"/><use transform="matrix(0.034999999999999996,0,0,0.034999999999999996,9,2.5199999999999996)" xlink:href="#p"/></g><path d="M115-194c55 1 70 41 70 98S169 2 115 4C84 4 66-9 55-30l1 105H24l-1-265h31l2 30c10-21 28-34 59-34zm-8 174c40 0 45-34 45-75s-6-73-45-74c-42 0-51 32-51 76 0 43 10 73 51 73" id="q"/><g id="f"><use transform="matrix(0.05,0,0,0.05,0,0)" xlink:href="#q"/><use transform="matrix(0.034999999999999996,0,0,0.034999999999999996,10,2.5199999999999996)" xlink:href="#l"/></g><g id="g"><use transform="matrix(0.05,0,0,0.05,0,0)" xlink:href="#q"/><use transform="matrix(0.034999999999999996,0,0,0.034999999999999996,10,2.5199999999999996)" xlink:href="#m"/></g><g id="h"><use transform="matrix(0.05,0,0,0.05,0,0)" xlink:href="#q"/><use transform="matrix(0.034999999999999996,0,0,0.034999999999999996,10,2.5199999999999996)" xlink:href="#n"/></g><g id="i"><use transform="matrix(0.05,0,0,0.05,0,0)" xlink:href="#q"/><use transform="matrix(0.034999999999999996,0,0,0.034999999999999996,10,2.5199999999999996)" xlink:href="#o"/></g><g id="j"><use transform="matrix(0.05,0,0,0.05,0,0)" xlink:href="#q"/><use transform="matrix(0.034999999999999996,0,0,0.034999999999999996,10,2.5199999999999996)" xlink:href="#p"/></g></defs></g></svg>