<?xml version="1.0" encoding="UTF-8" standalone="no"?>
<svg
   xmlns:lucid="lucid"
   xmlns:dc="http://purl.org/dc/elements/1.1/"
   xmlns:cc="http://creativecommons.org/ns#"
   xmlns:rdf="http://www.w3.org/1999/02/22-rdf-syntax-ns#"
   xmlns:svg="http://www.w3.org/2000/svg"
   xmlns="http://www.w3.org/2000/svg"
   xmlns:xlink="http://www.w3.org/1999/xlink"
   xmlns:sodipodi="http://sodipodi.sourceforge.net/DTD/sodipodi-0.dtd"
   xmlns:inkscape="http://www.inkscape.org/namespaces/inkscape"
   width="467.17999"
   height="352.95001"
   version="1.1"
   id="svg185"
   sodipodi:docname="my_mask.svg"
   inkscape:version="0.92.4 5da689c313, 2019-01-14">
  <metadata
     id="metadata191">
    <rdf:RDF>
      <cc:Work
         rdf:about="">
        <dc:format>image/svg+xml</dc:format>
        <dc:type
           rdf:resource="http://purl.org/dc/dcmitype/StillImage" />
        <dc:title></dc:title>
      </cc:Work>
    </rdf:RDF>
  </metadata>
  <defs
     id="defs189" />
  <sodipodi:namedview
     pagecolor="#ffffff"
     bordercolor="#666666"
     borderopacity="1"
     objecttolerance="10"
     gridtolerance="10"
     guidetolerance="10"
     inkscape:pageopacity="0"
     inkscape:pageshadow="2"
     inkscape:window-width="640"
     inkscape:window-height="480"
     id="namedview187"
     showgrid="false"
     fit-margin-top="0"
     fit-margin-left="0"
     fit-margin-right="0"
     fit-margin-bottom="0"
     inkscape:zoom="0.53657973"
     inkscape:cx="641.4885"
     inkscape:cy="-256.45023"
     inkscape:current-layer="g183" />
  <g
     transform="translate(-33.88,-25.2)"
     lucid:page-tab-id="EvCg64Lq02H8"
     id="g183">
    <path
       d="m 113.4,69.63 13.1,-10.94 h 111.07 v 96.25 l -10.94,13.13 H 113.4 Z"
       id="path4"
       inkscape:connector-curvature="0"
       style="fill:#ffffff;stroke:#000000;stroke-width:2" />
    <path
       d="M 113.4,69.63 126.5,58.69 H 237.57 L 226.63,69.62 Z"
       id="path6"
       inkscape:connector-curvature="0"
       style="fill:#e6e6e6;stroke:#000000;stroke-width:2" />
    <path
       d="m 226.63,69.63 10.94,-10.94 v 96.25 l -10.94,13.13 z"
       id="path8"
       inkscape:connector-curvature="0"
       style="fill:#cccccc;stroke:#000000;stroke-width:2" />
    <path
       d="m 88.37,88.7 13.12,-10.93 h 111.05 v 96.26 L 201.6,187.15 H 88.38 Z"
       id="path10"
       inkscape:connector-curvature="0"
       style="fill:#ffffff;stroke:#000000;stroke-width:2" />
    <path
       d="M 88.37,88.7 101.49,77.77 H 212.54 L 201.6,88.7 Z"
       id="path12"
       inkscape:connector-curvature="0"
       style="fill:#e6e6e6;stroke:#000000;stroke-width:2" />
    <path
       d="m 201.6,88.7 10.95,-10.93 v 96.26 l -10.94,13.12 z"
       id="path14"
       inkscape:connector-curvature="0"
       style="fill:#cccccc;stroke:#000000;stroke-width:2" />
    <path
       d="M 63,109.18 76.1,98.24 h 111.05 v 96.27 l -10.94,13.13 H 63 Z"
       id="path16"
       inkscape:connector-curvature="0"
       style="fill:#ffffff;stroke:#000000;stroke-width:2" />
    <path
       d="M 63,109.18 76.1,98.24 h 111.05 l -10.94,10.94 z"
       id="path18"
       inkscape:connector-curvature="0"
       style="fill:#e6e6e6;stroke:#000000;stroke-width:2" />
    <path
       d="m 176.23,109.18 10.94,-10.94 v 96.27 l -10.94,13.13 z"
       id="path20"
       inkscape:connector-curvature="0"
       style="fill:#cccccc;stroke:#000000;stroke-width:2" />
    <use
       xlink:href="#a"
       transform="translate(82.592126,131.58382)"
       id="use22"
       x="0"
       y="0"
       width="100%"
       height="100%" />
    <use
       xlink:href="#b"
       transform="translate(74.567126,153.18382)"
       id="use24"
       x="0"
       y="0"
       width="100%"
       height="100%" />
    <g
       id="g30"
       style="fill:none">
      <path
         d="m 175.8,216.76 v 35 H 63 v -35 z"
         id="path26"
         inkscape:connector-curvature="0" />
      <path
         d="m 63,216.76 c 0,3.9 3.15,7.05 7.04,7.05 h 42.3 c 3.9,0 7.05,3.17 7.05,7.06 0,-3.9 3.15,-7.05 7.04,-7.05 h 42.3 c 3.9,0 7.05,-3.14 7.05,-7.04"
         id="path28"
         inkscape:connector-curvature="0"
         style="stroke:#000000;stroke-width:2" />
    </g>
    <use
       xlink:href="#c"
       transform="translate(109.49213,254.23996)"
       id="use32"
       x="0"
       y="0"
       width="100%"
       height="100%" />
    <g
       id="g38"
       style="fill:none">
      <path
         d="M 57.93,108.6 33.88,84.57 93.25,25.2 117.3,49.25 Z"
         id="path34"
         inkscape:connector-curvature="0" />
      <path
         d="m 117.3,49.25 c -2.05,-2.05 -5.37,-2.05 -7.42,0 L 87.62,71.5 c -2.05,2.06 -5.38,2.06 -7.43,0 2.04,2.06 2.04,5.38 0,7.43 L 57.92,101.2 c -2.05,2.04 -2.05,5.36 0,7.4"
         id="path36"
         inkscape:connector-curvature="0"
         style="stroke:#000000;stroke-width:2" />
    </g>
    <use
       xlink:href="#d"
       transform="rotate(45,-40.902808,107.34979)"
       id="use40"
       x="0"
       y="0"
       width="100%"
       height="100%" />
    <g
       id="g46"
       style="fill:none">
      <path
         d="m 242.33,157.48 24.05,24.05 -15.56,15.55 -24.05,-24.05 z"
         id="path42"
         inkscape:connector-curvature="0" />
      <path
         d="m 226.77,173.03 c 0.54,0.54 1.4,0.54 1.95,0 l 5.83,-5.83 c 0.54,-0.54 1.4,-0.54 1.94,0 -0.54,-0.54 -0.54,-1.4 0,-1.94 l 5.83,-5.84 c 0.53,-0.53 0.53,-1.4 0,-1.94"
         id="path44"
         inkscape:connector-curvature="0"
         style="stroke:#000000;stroke-width:2" />
    </g>
    <use
       xlink:href="#e"
       transform="rotate(45,-96.912697,372.56758)"
       id="use48"
       x="0"
       y="0"
       width="100%"
       height="100%" />
    <path
       d="m 128.02,96.6 46.7,-38.27"
       id="path50"
       inkscape:connector-curvature="0"
       style="fill:none" />
    <path
       d="m 128.02,96.6 2.92,-2.38 m 5.83,-4.8 5.84,-4.77 m 5.84,-4.8 5.84,-4.77 m 5.84,-4.8 5.83,-4.77 m 5.84,-4.78 2.9,-2.4"
       id="path52"
       inkscape:connector-curvature="0"
       style="fill:none;stroke:#000000;stroke-width:2" />
    <path
       d="m 128.57,97.24 h -2.9 l 1.74,-1.42 z m 46.75,-38.12 -1.17,-1.43 h 2.9 z"
       id="path54"
       inkscape:connector-curvature="0" />
    <path
       d="m 417,133.28 h 84.06 V 249.84 H 417 Z"
       id="path56"
       inkscape:connector-curvature="0"
       style="fill:none" />
    <path
       d="m 417,249.84 c 4,0 7.28,-3.26 7.28,-7.3 v -43.7 c 0,-4.02 3.26,-7.28 7.28,-7.28 -4.02,0 -7.28,-3.26 -7.28,-7.28 v -43.7 c 0,-4.04 -3.27,-7.3 -7.3,-7.3"
       id="path58"
       inkscape:connector-curvature="0"
       style="fill:none;stroke:#000000;stroke-width:2" />
    <use
       xlink:href="#f"
       transform="translate(443.84489,195.38346)"
       id="use60"
       x="0"
       y="0"
       width="100%"
       height="100%" />
    <g
       id="g66"
       style="fill:none">
      <path
         d="m 188.63,319.12 v 59.03 H 64.47 v -59.03 z"
         id="path62"
         inkscape:connector-curvature="0" />
      <path
         d="m 64.47,319.12 c 0,4.3 3.47,7.76 7.76,7.76 h 46.56 c 4.27,0 7.75,3.48 7.75,7.76 0,-4.28 3.47,-7.76 7.76,-7.76 h 46.57 c 4.28,0 7.76,-3.47 7.76,-7.76"
         id="path64"
         inkscape:connector-curvature="0"
         style="stroke:#000000;stroke-width:2" />
    </g>
    <use
       xlink:href="#d"
       transform="translate(120.4903,361.80272)"
       id="use68"
       x="0"
       y="0"
       width="100%"
       height="100%" />
    <path
       d="m 190.9,306.47 148.57,-57.3"
       id="path70"
       inkscape:connector-curvature="0"
       style="fill:none" />
    <path
       d="m 190.9,306.47 3.72,-1.43 m 7.43,-2.86 7.43,-2.87 m 7.43,-2.85 7.43,-2.87 m 7.43,-2.87 7.43,-2.85 m 7.42,-2.87 7.43,-2.86 m 7.42,-2.87 7.43,-2.86 m 7.43,-2.88 7.43,-2.86 m 7.43,-2.87 7.4,-2.87 m 7.44,-2.87 7.43,-2.86 m 7.43,-2.87 7.43,-2.87 m 7.42,-2.86 3.72,-1.43"
       id="path72"
       inkscape:connector-curvature="0"
       style="fill:none;stroke:#000000;stroke-width:2" />
    <path
       d="m 191.3,307.4 -3.76,1.45 -0.5,-1.33 h 2.94 v -1.76 l 0.6,-0.23 z m 149.1,-57.52 -0.6,0.23 -0.72,-1.86 1.32,-0.5 z"
       id="path74"
       inkscape:connector-curvature="0" />
    <path
       d="m 240.8,58.3 98.8,73.4"
       id="path76"
       inkscape:connector-curvature="0"
       style="fill:none" />
    <path
       d="m 240.8,58.3 3.07,2.28 m 6.18,4.6 6.18,4.58 m 6.17,4.6 6.18,4.57 m 6.17,4.6 6.18,4.58 m 6.17,4.6 6.18,4.58 m 6.18,4.6 6.17,4.58 m 6.18,4.58 6.18,4.6 m 6.18,4.58 6.17,4.6 m 6.18,4.57 3.1,2.3"
       id="path78"
       inkscape:connector-curvature="0"
       style="fill:none;stroke:#000000;stroke-width:2" />
    <path
       d="m 241.4,57.5 -1.2,1.6 -0.93,-0.7 0.7,-0.7 h -1.4 v -1.42 l -0.92,0.92 -0.67,-0.5 1.2,-1.6 z"
       id="path80"
       inkscape:connector-curvature="0" />
    <path
       d="m 339.58,131.67 0.82,0.6"
       id="path82"
       inkscape:connector-curvature="0"
       style="fill:none;stroke:#000000;stroke-width:2" />
    <path
       d="m 341.4,133.28 h 63 v 29.6 h -63 z"
       id="path84"
       inkscape:connector-curvature="0"
       style="fill:#cccccc;stroke:#000000;stroke-width:2" />
    <path
       d="m 341.4,162.9 h 63 v 29.6 h -63 z"
       id="path86"
       inkscape:connector-curvature="0"
       style="fill:#0c7cba;stroke:#000000;stroke-width:2" />
    <path
       d="m 341.4,192.5 h 63 v 27.73 h -63 z m 0,27.73 h 63 v 29.6 h -63 z"
       id="path88"
       inkscape:connector-curvature="0"
       style="fill:#cccccc;stroke:#000000;stroke-width:2" />
    <path
       d="m 88.2,275.03 h 25.2 v 31.5 H 88.2 Z"
       id="path90"
       inkscape:connector-curvature="0"
       style="fill:#0c7cba;stroke:#000000;stroke-width:2" />
    <path
       d="m 63,275.03 h 25.2 v 31.5 H 63 Z m 50.4,0 h 25.18 v 31.5 h -25.2 z m 25.18,0 h 25.2 v 31.5 h -25.2 z m 25.2,0 h 25.2 v 31.5 h -25.2 z"
       id="path92"
       inkscape:connector-curvature="0"
       style="fill:#ffffff;stroke:#000000;stroke-width:2" />
    <path
       d="M 186.3,273.36 339.66,135.1"
       id="path94"
       inkscape:connector-curvature="0"
       style="fill:none" />
    <path
       d="m 186.3,273.36 2.95,-2.66 m 5.9,-5.32 5.9,-5.32 m 5.9,-5.3 5.9,-5.33 m 5.9,-5.32 5.9,-5.3 m 5.9,-5.33 5.88,-5.32 m 5.9,-5.3 5.9,-5.33 m 5.9,-5.32 5.9,-5.32 m 5.9,-5.32 5.9,-5.3 m 5.9,-5.33 5.9,-5.32 m 5.9,-5.3 5.9,-5.33 m 5.9,-5.32 5.9,-5.3 m 5.88,-5.33 5.9,-5.32 m 5.9,-5.32 5.9,-5.32 m 5.9,-5.3 2.96,-2.67"
       id="path96"
       inkscape:connector-curvature="0"
       style="fill:none;stroke:#000000;stroke-width:2" />
    <path
       d="m 186.94,274.03 h -2.88 l 1.6,-1.43 z m 153.46,-138.27 -0.1,0.1 -1.33,-1.5 1.43,-1.3 z m 2.12,-3.48 h -1.25 l 0.7,-0.6 z"
       id="path98"
       inkscape:connector-curvature="0" />
    <path
       d="m 175.6,208.87 163.83,39.7"
       id="path100"
       inkscape:connector-curvature="0"
       style="fill:none" />
    <path
       d="m 175.6,208.87 3.7,0.9 m 7.46,1.8 7.45,1.8 m 7.45,1.82 7.45,1.8 m 7.45,1.8 7.45,1.8 m 7.44,1.8 7.45,1.8 m 7.44,1.8 7.45,1.82 m 7.43,1.8 7.45,1.8 m 7.45,1.8 7.44,1.82 m 7.45,1.8 7.45,1.8 m 7.45,1.8 7.44,1.8 m 7.45,1.82 7.46,1.8 m 7.44,1.8 3.73,0.9"
       id="path102"
       inkscape:connector-curvature="0"
       style="fill:none;stroke:#000000;stroke-width:2" />
    <path
       d="m 175.23,208.63 v 1.18 l -3.76,-0.9 0.06,-0.27 z"
       id="path104"
       inkscape:connector-curvature="0" />
    <path
       d="m 339.4,248.56 1,0.25"
       id="path106"
       inkscape:connector-curvature="0"
       style="fill:none;stroke:#000000;stroke-width:2" />
    <defs
       id="defs181">
      <path
         d="M 24,0 V -248 H 76 V 0 H 24"
         id="g"
         inkscape:connector-curvature="0" />
      <path
         d="m 88,-194 c 31,-1 46,15 58,34 l -1,-101 h 50 l 1,261 h -48 c -2,-10 0,-23 -3,-31 C 134,-8 116,4 84,4 32,4 16,-41 15,-95 c 0,-56 19,-97 73,-99 z m 17,164 c 33,0 40,-30 41,-66 1,-37 -9,-64 -41,-64 -32,0 -38,30 -39,65 0,43 13,65 39,65"
         id="h"
         inkscape:connector-curvature="0" />
      <path
         d="M 185,-48 C 172,-18 148,5 103,4 43,2 14,-33 14,-96 c 0,-63 30,-98 90,-98 62,0 83,45 84,108 H 66 c 0,31 8,55 39,56 18,0 30,-7 34,-22 z m -45,-69 c 5,-46 -57,-63 -70,-21 -2,6 -4,13 -4,21 h 74"
         id="i"
         inkscape:connector-curvature="0" />
      <path
         d="m 135,-194 c 87,-1 58,113 63,194 h -50 c -7,-57 23,-157 -34,-157 -59,0 -34,97 -39,157 H 25 l -1,-190 h 47 c 2,12 -1,28 3,38 12,-26 28,-41 61,-42"
         id="j"
         inkscape:connector-curvature="0" />
      <path
         d="M 115,-3 C 79,11 28,4 28,-45 V -157 H 4 v -33 h 27 l 15,-45 h 31 v 45 h 36 v 33 H 77 v 99 c -1,23 16,31 38,25 v 30"
         id="k"
         inkscape:connector-curvature="0" />
      <path
         d="m 25,-224 v -37 h 50 v 37 z M 25,0 V -190 H 75 V 0 H 25"
         id="l"
         inkscape:connector-curvature="0" />
      <path
         d="M 123,10 C 108,53 80,86 19,72 V 37 C 54,45 72,26 78,-2 L 3,-190 h 52 l 48,148 c 12,-52 28,-100 44,-148 h 51"
         id="m"
         inkscape:connector-curvature="0" />
      <g
         id="a">
        <use
           transform="scale(0.05)"
           xlink:href="#g"
           id="use115"
           x="0"
           y="0"
           width="100%"
           height="100%" />
        <use
           transform="matrix(0.05,0,0,0.05,5,0)"
           xlink:href="#h"
           id="use117"
           x="0"
           y="0"
           width="100%"
           height="100%" />
        <use
           transform="matrix(0.05,0,0,0.05,15.95,0)"
           xlink:href="#i"
           id="use119"
           x="0"
           y="0"
           width="100%"
           height="100%" />
        <use
           transform="matrix(0.05,0,0,0.05,25.95,0)"
           xlink:href="#j"
           id="use121"
           x="0"
           y="0"
           width="100%"
           height="100%" />
        <use
           transform="matrix(0.05,0,0,0.05,36.9,0)"
           xlink:href="#k"
           id="use123"
           x="0"
           y="0"
           width="100%"
           height="100%" />
        <use
           transform="matrix(0.05,0,0,0.05,42.85,0)"
           xlink:href="#l"
           id="use125"
           x="0"
           y="0"
           width="100%"
           height="100%" />
        <use
           transform="matrix(0.05,0,0,0.05,47.85,0)"
           xlink:href="#k"
           id="use127"
           x="0"
           y="0"
           width="100%"
           height="100%" />
        <use
           transform="matrix(0.05,0,0,0.05,53.8,0)"
           xlink:href="#m"
           id="use129"
           x="0"
           y="0"
           width="100%"
           height="100%" />
      </g>
      <path
         d="m 67,-125 c 0,53 21,87 73,88 37,1 54,-22 65,-47 l 45,17 C 233,-25 199,4 140,4 58,4 20,-42 15,-125 8,-235 124,-281 211,-232 c 18,10 29,29 36,50 l -46,12 c -8,-25 -30,-41 -62,-41 -52,0 -71,34 -72,86"
         id="n"
         inkscape:connector-curvature="0" />
      <path
         d="M 133,-34 C 117,-15 103,5 69,4 32,3 11,-16 11,-54 c -1,-60 55,-63 116,-61 1,-26 -3,-47 -28,-47 -18,1 -26,9 -28,27 l -52,-2 c 7,-38 36,-58 82,-57 46,1 74,22 75,68 l 1,82 c -1,14 12,18 25,15 v 27 c -30,8 -71,5 -69,-32 z m -48,3 c 29,0 43,-24 42,-57 -32,0 -66,-3 -65,30 0,17 8,27 23,27"
         id="o"
         inkscape:connector-curvature="0" />
      <path
         d="m 135,-194 c 53,0 70,44 70,98 0,56 -19,98 -73,100 -31,1 -45,-17 -59,-34 3,33 2,69 2,105 H 25 l -1,-265 h 48 c 2,10 0,23 3,31 11,-24 29,-35 60,-35 z m -21,164 c 33,0 39,-31 40,-66 0,-38 -9,-64 -40,-64 -56,0 -55,130 0,130"
         id="p"
         inkscape:connector-curvature="0" />
      <path
         d="m 137,-138 c 1,-29 -70,-34 -71,-4 15,46 118,7 119,86 1,83 -164,76 -172,9 l 43,-7 c 4,19 20,25 44,25 33,8 57,-30 24,-41 -43,-14 -102,-11 -104,-66 -2,-80 154,-74 161,-7"
         id="q"
         inkscape:connector-curvature="0" />
      <path
         d="M 85,4 C -2,5 27,-109 22,-190 h 50 c 7,57 -23,150 33,157 60,-5 35,-97 40,-157 h 50 l 1,190 h -47 c -2,-12 1,-28 -3,-38 -12,25 -28,42 -61,42"
         id="r"
         inkscape:connector-curvature="0" />
      <path
         d="M 25,0 V -261 H 75 V 0 H 25"
         id="s"
         inkscape:connector-curvature="0" />
      <g
         id="b">
        <use
           transform="scale(0.05)"
           xlink:href="#n"
           id="use138"
           x="0"
           y="0"
           width="100%"
           height="100%" />
        <use
           transform="matrix(0.05,0,0,0.05,12.95,0)"
           xlink:href="#o"
           id="use140"
           x="0"
           y="0"
           width="100%"
           height="100%" />
        <use
           transform="matrix(0.05,0,0,0.05,22.95,0)"
           xlink:href="#p"
           id="use142"
           x="0"
           y="0"
           width="100%"
           height="100%" />
        <use
           transform="matrix(0.05,0,0,0.05,33.9,0)"
           xlink:href="#q"
           id="use144"
           x="0"
           y="0"
           width="100%"
           height="100%" />
        <use
           transform="matrix(0.05,0,0,0.05,43.9,0)"
           xlink:href="#r"
           id="use146"
           x="0"
           y="0"
           width="100%"
           height="100%" />
        <use
           transform="matrix(0.05,0,0,0.05,54.85,0)"
           xlink:href="#s"
           id="use148"
           x="0"
           y="0"
           width="100%"
           height="100%" />
        <use
           transform="matrix(0.05,0,0,0.05,59.85,0)"
           xlink:href="#i"
           id="use150"
           x="0"
           y="0"
           width="100%"
           height="100%" />
        <use
           transform="matrix(0.05,0,0,0.05,69.85,0)"
           xlink:href="#q"
           id="use152"
           x="0"
           y="0"
           width="100%"
           height="100%" />
      </g>
      <path
         d="m 27,0 v -27 h 64 v -190 l -56,39 v -29 l 58,-41 h 29 v 221 h 61 V 0 H 27"
         id="t"
         inkscape:connector-curvature="0" />
      <path
         d="m 101,-251 c 68,0 85,55 85,127 0,72 -20,128 -86,128 -67,0 -86,-56 -86,-128 0,-73 17,-127 87,-127 z m -1,229 c 47,0 54,-49 54,-102 0,-53 -4,-102 -53,-102 -51,0 -55,48 -55,102 0,53 5,102 54,102"
         id="u"
         inkscape:connector-curvature="0" />
      <g
         id="c">
        <use
           transform="scale(0.05)"
           xlink:href="#t"
           id="use157"
           x="0"
           y="0"
           width="100%"
           height="100%" />
        <use
           transform="matrix(0.05,0,0,0.05,10,0)"
           xlink:href="#u"
           id="use159"
           x="0"
           y="0"
           width="100%"
           height="100%" />
      </g>
      <path
         d="M 190,0 58,-211 59,0 H 30 v -248 h 39 l 133,213 -2,-213 h 31 V 0 h -41"
         id="v"
         inkscape:connector-curvature="0" />
      <use
         transform="scale(0.05)"
         xlink:href="#v"
         id="d"
         x="0"
         y="0"
         width="100%"
         height="100%" />
      <path
         d="m 126,-127 c 33,6 58,20 58,59 0,88 -139,92 -164,29 -3,-8 -5,-16 -6,-25 l 32,-3 c 6,27 21,44 54,44 32,0 52,-15 52,-46 0,-38 -36,-46 -79,-43 v -28 c 39,1 72,-4 72,-42 0,-27 -17,-43 -46,-43 -28,0 -47,15 -49,41 l -32,-3 c 6,-42 35,-63 81,-64 48,-1 79,21 79,65 0,36 -21,52 -52,59"
         id="w"
         inkscape:connector-curvature="0" />
      <path
         d="m 101,-251 c 82,-7 93,87 43,132 L 82,-64 C 71,-53 59,-42 53,-27 H 182 V 0 H 18 c 2,-99 128,-94 128,-182 0,-28 -16,-43 -45,-43 -29,0 -46,15 -49,41 l -32,-3 c 6,-41 34,-60 81,-64"
         id="x"
         inkscape:connector-curvature="0" />
      <g
         id="e">
        <use
           transform="scale(0.05)"
           xlink:href="#w"
           id="use166"
           x="0"
           y="0"
           width="100%"
           height="100%" />
        <use
           transform="matrix(0.05,0,0,0.05,10,0)"
           xlink:href="#x"
           id="use168"
           x="0"
           y="0"
           width="100%"
           height="100%" />
      </g>
      <path
         d="M 141,0 90,-78 38,0 H 4 L 72,-98 7,-190 h 35 l 48,74 47,-74 h 35 l -64,92 68,98 h -35"
         id="y"
         inkscape:connector-curvature="0" />
      <g
         id="f">
        <use
           transform="scale(0.05)"
           xlink:href="#w"
           id="use172"
           x="0"
           y="0"
           width="100%"
           height="100%" />
        <use
           transform="matrix(0.05,0,0,0.05,10,0)"
           xlink:href="#x"
           id="use174"
           x="0"
           y="0"
           width="100%"
           height="100%" />
        <use
           transform="matrix(0.05,0,0,0.05,20,0)"
           xlink:href="#y"
           id="use176"
           x="0"
           y="0"
           width="100%"
           height="100%" />
        <use
           transform="matrix(0.05,0,0,0.05,29,0)"
           xlink:href="#v"
           id="use178"
           x="0"
           y="0"
           width="100%"
           height="100%" />
      </g>
    </defs>
  </g>
</svg>
