<svg xmlns="http://www.w3.org/2000/svg" xmlns:xlink="http://www.w3.org/1999/xlink" xmlns:lucid="lucid" width="606.93" height="354.96"><g transform="translate(-36.69291338582674 -30.393700787401606)" lucid:page-tab-id="fnwKWMzHGvNq"><path d="M119.7 81.9c0 17.38-14.12 31.5-31.5 31.5-17.4 0-31.5-14.12-31.5-31.5 0-17.4 14.1-31.5 31.5-31.5 17.38 0 31.5 14.1 31.5 31.5z" stroke="#000" stroke-width="2" fill="#fff"/><use xlink:href="#a" transform="matrix(1,0,0,1,61.69291338582678,55.393700787401606) translate(18.5 30.1)"/><path d="M245.67 81.9c0 17.38-14.1 31.5-31.5 31.5s-31.5-14.12-31.5-31.5c0-17.4 14.1-31.5 31.5-31.5s31.5 14.1 31.5 31.5z" stroke="#000" stroke-width="2" fill="#fff"/><use xlink:href="#b" transform="matrix(1,0,0,1,187.67716535430134,55.393700787401606) translate(18.5 30.1)"/><path d="M371.65 81.9c0 17.38-14.1 31.5-31.5 31.5s-31.5-14.12-31.5-31.5c0-17.4 14.1-31.5 31.5-31.5s31.5 14.1 31.5 31.5z" stroke="#000" stroke-width="2" fill="#ccc"/><use xlink:href="#c" transform="matrix(1,0,0,1,313.66141732277595,55.393700787401606) translate(18.5 30.1)"/><path d="M497.64 81.9c0 17.38-14.1 31.5-31.5 31.5s-31.5-14.12-31.5-31.5c0-17.4 14.1-31.5 31.5-31.5s31.5 14.1 31.5 31.5z" stroke="#000" stroke-width="2" fill="#fff"/><use xlink:href="#d" transform="matrix(1,0,0,1,439.6456692912505,55.393700787401606) translate(18.5 30.1)"/><path d="M623.62 81.9c0 17.38-14.1 31.5-31.5 31.5s-31.5-14.12-31.5-31.5c0-17.4 14.1-31.5 31.5-31.5s31.5 14.1 31.5 31.5z" stroke="#000" stroke-width="2" fill="#fff"/><use xlink:href="#e" transform="matrix(1,0,0,1,565.6299212597248,55.393700787401606) translate(18.5 30.1)"/><path d="M119.7 207.87c0 17.4-14.12 31.5-31.5 31.5-17.4 0-31.5-14.1-31.5-31.5s14.1-31.5 31.5-31.5c17.38 0 31.5 14.1 31.5 31.5z" stroke="#000" stroke-width="2" fill="#fff"/><use xlink:href="#f" transform="matrix(1,0,0,1,61.69291338582678,181.37795275595778) translate(18 30.1)"/><path d="M245.67 207.87c0 17.4-14.1 31.5-31.5 31.5s-31.5-14.1-31.5-31.5 14.1-31.5 31.5-31.5 31.5 14.1 31.5 31.5z" stroke="#000" stroke-width="2" fill="#ccc"/><use xlink:href="#g" transform="matrix(1,0,0,1,187.67716535430134,181.37795275595778) translate(18 30.1)"/><path d="M371.65 207.87c0 17.4-14.1 31.5-31.5 31.5s-31.5-14.1-31.5-31.5 14.1-31.5 31.5-31.5 31.5 14.1 31.5 31.5z" stroke="#000" stroke-width="2" fill="#ccc"/><use xlink:href="#h" transform="matrix(1,0,0,1,313.66141732277595,181.37795275595778) translate(18 30.1)"/><path d="M497.64 207.87c0 17.4-14.1 31.5-31.5 31.5s-31.5-14.1-31.5-31.5 14.1-31.5 31.5-31.5 31.5 14.1 31.5 31.5z" stroke="#000" stroke-width="2" fill="#ccc"/><use xlink:href="#i" transform="matrix(1,0,0,1,439.6456692912505,181.37795275595778) translate(18 30.1)"/><path d="M623.62 207.87c0 17.4-14.1 31.5-31.5 31.5s-31.5-14.1-31.5-31.5 14.1-31.5 31.5-31.5 31.5 14.1 31.5 31.5z" stroke="#000" stroke-width="2" fill="#fff"/><use xlink:href="#j" transform="matrix(1,0,0,1,565.6299212597248,181.37795275595778) translate(18 30.1)"/><path d="M340.16 175.38v-42.76" stroke="#000" stroke-width="2" fill="none"/><path d="M341.16 176.46l-1-.08-1 .07v-1.07h2zM344.8 131.9h-9.28l4.64-14.28z"/><path d="M346.17 132.9h-12.02l6-18.5zm-9.27-2h6.52l-3.26-10.04z"/><path d="M340.16 175.38l109.57-53.05" stroke="#000" stroke-width="2" fill="none"/><path d="M340.6 176.28l-.25.1h-.2l-2.75.2-.38-.8 2.7-1.3zM452.4 126.2l-4.03-8.36 14.86-2.04z"/><path d="M452.1 127.86l-5.23-10.82 19.27-2.65zm-2.23-9.2l2.84 5.85 7.62-7.3z"/><path d="M340.16 175.38L230.6 122.33" stroke="#000" stroke-width="2" fill="none"/><path d="M343.3 175.78l-.4.82-2.74-.22h-.2l-.24-.1.87-1.8zM231.95 117.84l-4.04 8.35-10.8-10.4z"/><path d="M233.45 117.04l-5.24 10.82-14.03-13.47zm-5.84 7.47l2.85-5.85L220 117.2z"/><path d="M214.17 175.38v-42.76" stroke="#000" stroke-width="2" fill="none"/><path d="M215.17 176.46l-1-.08-1 .07v-1.07h2zM218.8 131.9h-9.26l4.63-14.28z"/><path d="M220.18 132.9h-12.02l6-18.5zm-9.27-2h6.53l-3.26-10.04z"/><path d="M88.2 175.38v-42.76" stroke="#000" stroke-width="2" fill="none"/><path d="M89.2 176.46l-1-.08-1 .07v-1.07h2zM92.82 131.9h-9.27l4.64-14.28z"/><path d="M94.2 132.9H82.18l6-18.5zm-9.27-2h6.52l-3.26-10.04z"/><path d="M466.14 175.38v-42.76" stroke="#000" stroke-width="2" fill="none"/><path d="M467.14 176.46l-1-.08-1 .07v-1.07h2zM470.78 131.9h-9.27l4.64-14.28z"/><path d="M472.15 132.9h-12.02l6-18.5zm-9.27-2h6.52l-3.26-10.04z"/><path d="M592.13 175.38v-42.76" stroke="#000" stroke-width="2" fill="none"/><path d="M593.13 176.46l-1-.08-1 .07v-1.07h2zM596.76 131.9h-9.27l4.63-14.28z"/><path d="M598.14 132.9H586.1l6.03-18.5zm-9.27-2h6.5l-3.24-10.04z"/><path d="M466.14 175.38l109.57-53.05" stroke="#000" stroke-width="2" fill="none"/><path d="M466.58 176.28l-.25.1h-.2l-2.74.2-.4-.8 2.7-1.3zM578.4 126.2l-4.05-8.36 14.86-2.04z"/><path d="M578.1 127.86l-5.25-10.82 19.28-2.65zm-2.25-9.2l2.84 5.85 7.6-7.3z"/><path d="M214.17 175.38l109.57-53.05" stroke="#000" stroke-width="2" fill="none"/><path d="M214.6 176.28l-.23.1h-.2l-2.75.2-.38-.8 2.7-1.3zM326.42 126.2l-4.04-8.36 14.86-2.04z"/><path d="M326.12 127.86l-5.24-10.82 19.28-2.65zm-2.24-9.2l2.84 5.85 7.6-7.3z"/><path d="M88.2 175.38l109.56-53.05" stroke="#000" stroke-width="2" fill="none"/><path d="M88.62 176.28l-.24.1h-.2l-2.74.2-.4-.8 2.7-1.3zM200.44 126.2l-4.04-8.36 14.86-2.04z"/><path d="M200.14 127.86l-5.24-10.82 19.27-2.65zm-2.24-9.2l2.84 5.85 7.6-7.3z"/><path d="M214.17 175.38L104.6 122.33" stroke="#000" stroke-width="2" fill="none"/><path d="M217.3 175.78l-.38.82-2.75-.22h-.2l-.23-.1.87-1.8zM105.96 117.84l-4.04 8.35-10.82-10.4z"/><path d="M107.46 117.04l-5.24 10.82L88.2 114.4zm-5.84 7.47l2.84-5.85L94 117.2z"/><path d="M466.14 175.38l-109.57-53.05" stroke="#000" stroke-width="2" fill="none"/><path d="M469.28 175.78l-.4.82-2.74-.22h-.2l-.23-.1.88-1.8zM357.93 117.84l-4.04 8.35-10.83-10.4z"/><path d="M359.43 117.04l-5.24 10.82-14.04-13.47zm-5.84 7.47l2.83-5.85-10.45-1.44z"/><path d="M592.13 175.38l-109.57-53.05" stroke="#000" stroke-width="2" fill="none"/><path d="M595.26 175.78l-.4.82-2.73-.22h-.2l-.24-.1.86-1.8zM483.9 117.84l-4.02 8.35-10.83-10.4z"/><path d="M485.4 117.04l-5.22 10.82-14.04-13.47zm-5.83 7.47l2.84-5.85-10.43-1.44z"/><path d="M119.7 333.86c0 17.4-14.12 31.5-31.5 31.5-17.4 0-31.5-14.1-31.5-31.5s14.1-31.5 31.5-31.5c17.38 0 31.5 14.1 31.5 31.5z" stroke="#000" stroke-width="2" fill="#ccc"/><use xlink:href="#k" transform="matrix(1,0,0,1,61.69291338582674,307.36220472451396) translate(18 30.1)"/><path d="M245.67 333.86c0 17.4-14.1 31.5-31.5 31.5s-31.5-14.1-31.5-31.5 14.1-31.5 31.5-31.5 31.5 14.1 31.5 31.5z" stroke="#000" stroke-width="2" fill="#ccc"/><use xlink:href="#l" transform="matrix(1,0,0,1,187.6771653543014,307.36220472451396) translate(18 30.1)"/><path d="M371.65 333.86c0 17.4-14.1 31.5-31.5 31.5s-31.5-14.1-31.5-31.5 14.1-31.5 31.5-31.5 31.5 14.1 31.5 31.5z" stroke="#000" stroke-width="2" fill="#ccc"/><use xlink:href="#m" transform="matrix(1,0,0,1,313.66141732277595,307.36220472451396) translate(18 30.1)"/><path d="M497.64 333.86c0 17.4-14.1 31.5-31.5 31.5s-31.5-14.1-31.5-31.5 14.1-31.5 31.5-31.5 31.5 14.1 31.5 31.5z" stroke="#000" stroke-width="2" fill="#ccc"/><use xlink:href="#n" transform="matrix(1,0,0,1,439.6456692912505,307.36220472451396) translate(18 30.1)"/><path d="M623.62 333.86c0 17.4-14.1 31.5-31.5 31.5s-31.5-14.1-31.5-31.5 14.1-31.5 31.5-31.5 31.5 14.1 31.5 31.5z" stroke="#000" stroke-width="2" fill="#ccc"/><use xlink:href="#o" transform="matrix(1,0,0,1,565.629921259725,307.36220472451396) translate(18 30.1)"/><path d="M340.16 301.36V258.6" stroke="#000" stroke-width="2" fill="none"/><path d="M341.16 302.44l-1-.08-1 .07v-1.07h2zM344.8 257.87h-9.28l4.64-14.26z"/><path d="M346.17 258.87h-12.02l6-18.5zm-9.27-2h6.52l-3.26-10.03z"/><path d="M340.16 301.36l109.57-53.04" stroke="#000" stroke-width="2" fill="none"/><path d="M340.6 302.26l-.25.12-.2-.02-2.75.2-.38-.8 2.7-1.3zM452.4 252.17l-4.03-8.34 14.86-2.05z"/><path d="M452.1 253.85l-5.23-10.83 19.27-2.65zm-2.23-9.22l2.84 5.87 7.62-7.3z"/><path d="M340.16 301.36L230.6 248.32" stroke="#000" stroke-width="2" fill="none"/><path d="M343.3 301.77l-.4.8-2.74-.2h-.2l-.24-.1.87-1.8zM231.95 243.83l-4.04 8.34-10.8-10.4z"/><path d="M233.45 243.02l-5.24 10.83-14.03-13.48zm-5.84 7.48l2.85-5.87L220 243.2z"/><path d="M214.17 301.36V258.6" stroke="#000" stroke-width="2" fill="none"/><path d="M215.17 302.44l-1-.08-1 .07v-1.07h2zM218.8 257.88h-9.26l4.63-14.27z"/><path d="M220.18 258.88h-12.02l6-18.5zm-9.27-2h6.53l-3.26-10.03z"/><path d="M88.2 301.36V258.6" stroke="#000" stroke-width="2" fill="none"/><path d="M89.2 302.44l-1-.08-1 .07v-1.07h2zM92.82 257.88h-9.27l4.64-14.27z"/><path d="M94.2 258.88H82.18l6-18.5zm-9.27-2h6.52l-3.26-10.03z"/><path d="M466.14 301.36V258.6" stroke="#000" stroke-width="2" fill="none"/><path d="M467.14 302.44l-1-.08-1 .07v-1.07h2zM470.78 257.87h-9.27l4.64-14.26z"/><path d="M472.15 258.87h-12.02l6-18.5zm-9.27-2h6.52l-3.26-10.03z"/><path d="M592.13 301.36V258.6" stroke="#000" stroke-width="2" fill="none"/><path d="M593.13 302.44l-1-.08-1 .07v-1.07h2zM596.76 257.88h-9.27l4.63-14.27z"/><path d="M598.14 258.88H586.1l6.03-18.5zm-9.27-2h6.5l-3.24-10.03z"/><path d="M466.14 301.36l109.57-53.04" stroke="#000" stroke-width="2" fill="none"/><path d="M466.58 302.26l-.25.12-.2-.02-2.74.2-.4-.8 2.7-1.3zM578.4 252.17l-4.05-8.34 14.86-2.05z"/><path d="M578.1 253.85l-5.25-10.83 19.28-2.65zm-2.25-9.22l2.84 5.87 7.6-7.3z"/><path d="M214.17 301.36l109.57-53.04" stroke="#000" stroke-width="2" fill="none"/><path d="M214.6 302.26l-.23.12-.2-.02-2.75.2-.38-.8 2.7-1.3zM326.42 252.17l-4.04-8.34 14.86-2.05z"/><path d="M326.12 253.85l-5.24-10.83 19.28-2.65zm-2.24-9.22l2.84 5.87 7.6-7.3z"/><path d="M88.2 301.36l109.56-53.04" stroke="#000" stroke-width="2" fill="none"/><path d="M88.62 302.26l-.24.12-.2-.02-2.74.2-.4-.8 2.7-1.3zM200.44 252.17l-4.04-8.34 14.86-2.05z"/><path d="M200.14 253.85l-5.24-10.83 19.27-2.65zm-2.24-9.22l2.84 5.87 7.6-7.3z"/><path d="M214.17 301.36L104.6 248.32" stroke="#000" stroke-width="2" fill="none"/><path d="M217.3 301.77l-.38.8-2.75-.2h-.2l-.23-.1.87-1.8zM105.96 243.83l-4.04 8.34-10.82-10.4z"/><path d="M107.46 243.02l-5.24 10.83-14.03-13.48zm-5.84 7.48l2.84-5.87L94 243.2z"/><path d="M466.14 301.36l-109.57-53.04" stroke="#000" stroke-width="2" fill="none"/><path d="M469.28 301.77l-.4.8-2.74-.2h-.2l-.23-.1.88-1.8zM357.93 243.83l-4.04 8.34-10.83-10.4z"/><path d="M359.43 243.02l-5.24 10.83-14.04-13.48zm-5.84 7.48l2.83-5.87-10.45-1.44z"/><path d="M592.13 301.36l-109.57-53.04" stroke="#000" stroke-width="2" fill="none"/><path d="M595.26 301.77l-.4.8-2.73-.2h-.2l-.24-.1.86-1.8zM483.9 243.83l-4.02 8.34-10.83-10.4z"/><path d="M485.4 243.02l-5.22 10.83-14.04-13.48zm-5.83 7.48l2.84-5.87-10.43-1.44z"/><defs><path d="M135-143c-3-34-86-38-87 0 15 53 115 12 119 90S17 21 10-45l28-5c4 36 97 45 98 0-10-56-113-15-118-90-4-57 82-63 122-42 12 7 21 19 24 35" id="p"/><path d="M27 0v-27h64v-190l-56 39v-29l58-41h29v221h61V0H27" id="q"/><g id="a"><use transform="matrix(0.05,0,0,0.05,0,0)" xlink:href="#p"/><use transform="matrix(0.034999999999999996,0,0,0.034999999999999996,9,2.5199999999999996)" xlink:href="#q"/></g><path d="M101-251c82-7 93 87 43 132L82-64C71-53 59-42 53-27h129V0H18c2-99 128-94 128-182 0-28-16-43-45-43s-46 15-49 41l-32-3c6-41 34-60 81-64" id="r"/><g id="b"><use transform="matrix(0.05,0,0,0.05,0,0)" xlink:href="#p"/><use transform="matrix(0.034999999999999996,0,0,0.034999999999999996,9,2.5199999999999996)" xlink:href="#r"/></g><path d="M126-127c33 6 58 20 58 59 0 88-139 92-164 29-3-8-5-16-6-25l32-3c6 27 21 44 54 44 32 0 52-15 52-46 0-38-36-46-79-43v-28c39 1 72-4 72-42 0-27-17-43-46-43-28 0-47 15-49 41l-32-3c6-42 35-63 81-64 48-1 79 21 79 65 0 36-21 52-52 59" id="s"/><g id="c"><use transform="matrix(0.05,0,0,0.05,0,0)" xlink:href="#p"/><use transform="matrix(0.034999999999999996,0,0,0.034999999999999996,9,2.5199999999999996)" xlink:href="#s"/></g><path d="M155-56V0h-30v-56H8v-25l114-167h33v167h35v25h-35zm-30-156c-27 46-58 90-88 131h88v-131" id="t"/><g id="d"><use transform="matrix(0.05,0,0,0.05,0,0)" xlink:href="#p"/><use transform="matrix(0.034999999999999996,0,0,0.034999999999999996,9,2.5199999999999996)" xlink:href="#t"/></g><path d="M54-142c48-35 137-8 131 61C196 18 31 33 14-55l32-4c7 23 22 37 52 37 35-1 51-22 54-58 4-55-73-65-99-34H22l8-134h141v27H59" id="u"/><g id="e"><use transform="matrix(0.05,0,0,0.05,0,0)" xlink:href="#p"/><use transform="matrix(0.034999999999999996,0,0,0.034999999999999996,9,2.5199999999999996)" xlink:href="#u"/></g><path d="M115-194c55 1 70 41 70 98S169 2 115 4C84 4 66-9 55-30l1 105H24l-1-265h31l2 30c10-21 28-34 59-34zm-8 174c40 0 45-34 45-75s-6-73-45-74c-42 0-51 32-51 76 0 43 10 73 51 73" id="v"/><g id="f"><use transform="matrix(0.05,0,0,0.05,0,0)" xlink:href="#v"/><use transform="matrix(0.034999999999999996,0,0,0.034999999999999996,10,2.5199999999999996)" xlink:href="#q"/></g><g id="g"><use transform="matrix(0.05,0,0,0.05,0,0)" xlink:href="#v"/><use transform="matrix(0.034999999999999996,0,0,0.034999999999999996,10,2.5199999999999996)" xlink:href="#r"/></g><g id="h"><use transform="matrix(0.05,0,0,0.05,0,0)" xlink:href="#v"/><use transform="matrix(0.034999999999999996,0,0,0.034999999999999996,10,2.5199999999999996)" xlink:href="#s"/></g><g id="i"><use transform="matrix(0.05,0,0,0.05,0,0)" xlink:href="#v"/><use transform="matrix(0.034999999999999996,0,0,0.034999999999999996,10,2.5199999999999996)" xlink:href="#t"/></g><g id="j"><use transform="matrix(0.05,0,0,0.05,0,0)" xlink:href="#v"/><use transform="matrix(0.034999999999999996,0,0,0.034999999999999996,10,2.5199999999999996)" xlink:href="#u"/></g><path d="M145-31C134-9 116 4 85 4 32 4 16-35 15-94c0-59 17-99 70-100 32-1 48 14 60 33 0-11-1-24 2-32h30l-1 268h-32zM93-21c41 0 51-33 51-76s-8-73-50-73c-40 0-46 35-46 75s5 74 45 74" id="w"/><g id="k"><use transform="matrix(0.05,0,0,0.05,0,0)" xlink:href="#w"/><use transform="matrix(0.034999999999999996,0,0,0.034999999999999996,10,2.5199999999999996)" xlink:href="#q"/></g><g id="l"><use transform="matrix(0.05,0,0,0.05,0,0)" xlink:href="#w"/><use transform="matrix(0.034999999999999996,0,0,0.034999999999999996,10,2.5199999999999996)" xlink:href="#r"/></g><g id="m"><use transform="matrix(0.05,0,0,0.05,0,0)" xlink:href="#w"/><use transform="matrix(0.034999999999999996,0,0,0.034999999999999996,10,2.5199999999999996)" xlink:href="#s"/></g><g id="n"><use transform="matrix(0.05,0,0,0.05,0,0)" xlink:href="#w"/><use transform="matrix(0.034999999999999996,0,0,0.034999999999999996,10,2.5199999999999996)" xlink:href="#t"/></g><g id="o"><use transform="matrix(0.05,0,0,0.05,0,0)" xlink:href="#w"/><use transform="matrix(0.034999999999999996,0,0,0.034999999999999996,10,2.5199999999999996)" xlink:href="#u"/></g></defs></g></svg>