<svg xmlns="http://www.w3.org/2000/svg" xmlns:xlink="http://www.w3.org/1999/xlink" xmlns:lucid="lucid" width="608.26" height="543.94"><g transform="translate(-41.65879265094802 -17.79527559049893)" lucid:page-tab-id="cZxKMPxc0V5n"><path d="M125.98 69.3c0 17.4-14.1 31.5-31.5 31.5S63 86.7 63 69.3s14.1-31.5 31.5-31.5S126 51.9 126 69.3z" stroke="#000" stroke-width="2" fill="#fff"/><use xlink:href="#a" transform="matrix(1,0,0,1,67.9921259842813,42.79527559049893) translate(18.5 30.1)"/><path d="M250.64 69.3c0 17.4-14.1 31.5-31.5 31.5s-31.5-14.1-31.5-31.5 14.1-31.5 31.5-31.5 31.5 14.1 31.5 31.5z" stroke="#000" stroke-width="2" fill="#fff"/><use xlink:href="#b" transform="matrix(1,0,0,1,192.64304461942257,42.79527559049894) translate(18.5 30.1)"/><path d="M377.95 69.3c0 17.4-14.1 31.5-31.5 31.5s-31.5-14.1-31.5-31.5 14.1-31.5 31.5-31.5 31.5 14.1 31.5 31.5z" stroke="#000" stroke-width="2" fill="#ccc"/><use xlink:href="#c" transform="matrix(1,0,0,1,319.96062992123046,42.79527559049894) translate(18.5 30.1)"/><path d="M503.94 69.3c0 17.4-14.1 31.5-31.5 31.5s-31.5-14.1-31.5-31.5 14.1-31.5 31.5-31.5 31.5 14.1 31.5 31.5z" stroke="#000" stroke-width="2" fill="#fff"/><use xlink:href="#d" transform="matrix(1,0,0,1,445.944881889705,42.79527559049895) translate(18.5 30.1)"/><path d="M629.92 69.3c0 17.4-14.1 31.5-31.5 31.5s-31.5-14.1-31.5-31.5 14.1-31.5 31.5-31.5 31.5 14.1 31.5 31.5z" stroke="#000" stroke-width="2" fill="#fff"/><use xlink:href="#e" transform="matrix(1,0,0,1,571.9291338581795,42.79527559049893) translate(18.5 30.1)"/><path d="M125.98 195.28c0 17.4-14.1 31.5-31.5 31.5S63 212.67 63 195.27s14.1-31.5 31.5-31.5 31.5 14.1 31.5 31.5z" stroke="#000" stroke-width="2" fill="#fff"/><use xlink:href="#f" transform="matrix(1,0,0,1,67.9921259842813,168.7795275590551) translate(18 30.1)"/><path d="M250.64 195.28c0 17.4-14.1 31.5-31.5 31.5s-31.5-14.1-31.5-31.5 14.1-31.5 31.5-31.5 31.5 14.1 31.5 31.5z" stroke="#000" stroke-width="2" fill="#ccc"/><use xlink:href="#g" transform="matrix(1,0,0,1,192.6430446194225,168.7795275590551) translate(18 30.1)"/><path d="M377.95 195.28c0 17.4-14.1 31.5-31.5 31.5s-31.5-14.1-31.5-31.5 14.1-31.5 31.5-31.5 31.5 14.1 31.5 31.5z" stroke="#000" stroke-width="2" fill="#ccc"/><use xlink:href="#h" transform="matrix(1,0,0,1,319.96062992123046,168.7795275590551) translate(18 30.1)"/><path d="M502.6 195.28c0 17.4-14.1 31.5-31.5 31.5s-31.5-14.1-31.5-31.5 14.1-31.5 31.5-31.5 31.5 14.1 31.5 31.5z" stroke="#000" stroke-width="2" fill="#ccc"/><use xlink:href="#i" transform="matrix(1,0,0,1,444.61154855637164,168.7795275590551) translate(18 30.1)"/><path d="M629.92 195.28c0 17.4-14.1 31.5-31.5 31.5s-31.5-14.1-31.5-31.5 14.1-31.5 31.5-31.5 31.5 14.1 31.5 31.5z" stroke="#000" stroke-width="2" fill="#fff"/><use xlink:href="#j" transform="matrix(1,0,0,1,571.9291338581795,168.7795275590551) translate(18 30.1)"/><path d="M346.46 162.78v-42.75" stroke="#000" stroke-width="2" fill="none"/><path d="M347.46 163.86l-1-.08-1 .07v-1.07h2zM351.1 119.3h-9.28l4.64-14.27z"/><path d="M352.47 120.3h-12.02l6-18.5zm-9.27-2h6.52l-3.26-10.04z"/><path d="M346.46 162.78l109.57-53.04" stroke="#000" stroke-width="2" fill="none"/><path d="M346.9 163.68l-.25.1h-.2l-2.75.2-.38-.8 2.7-1.3zM458.7 113.6l-4.03-8.36 14.86-2.04z"/><path d="M458.4 115.26l-5.23-10.82 19.27-2.65zm-2.23-9.2l2.84 5.85 7.62-7.3z"/><path d="M346.46 162.78l-110.87-53.1" stroke="#000" stroke-width="2" fill="none"/><path d="M349.6 163.17l-.4.83-2.74-.22h-.2l-.24-.1.87-1.8zM236.93 105.17l-4 8.36-10.87-10.34z"/><path d="M238.42 104.36l-5.2 10.84-14.08-13.4zm-5.8 7.5l2.8-5.88-10.44-1.4z"/><path d="M219.14 162.78v-42.75" stroke="#000" stroke-width="2" fill="none"/><path d="M220.14 163.86l-1-.08-1 .07v-1.07h2zM223.77 119.3h-9.27l4.64-14.27z"/><path d="M225.15 120.3h-12.02l6-18.5zm-9.27-2h6.52l-3.26-10.04z"/><path d="M94.5 162.78v-42.75" stroke="#000" stroke-width="2" fill="none"/><path d="M95.5 163.86l-1-.08-1 .07v-1.07h2zM99.12 119.3h-9.27l4.64-14.27z"/><path d="M100.5 120.3H88.48l6-18.5zm-9.27-2h6.52l-3.26-10.04z"/><path d="M471.1 162.78v-30.5h1.34v-12.25" stroke="#000" stroke-width="2" fill="none"/><path d="M472.1 163.86l-1-.08-1 .07v-1.07h2zM477.08 119.3h-9.27l4.64-14.27z"/><path d="M478.45 120.3h-12.02l6-18.5zm-9.27-2h6.52l-3.26-10.04z"/><path d="M598.43 162.78v-42.75" stroke="#000" stroke-width="2" fill="none"/><path d="M599.43 163.86l-1-.08-1 .07v-1.07h2zM603.06 119.3h-9.27l4.63-14.27z"/><path d="M604.44 120.3H592.4l6.03-18.5zm-9.27-2h6.5l-3.24-10.04z"/><path d="M471.1 162.78L582 109.68" stroke="#000" stroke-width="2" fill="none"/><path d="M471.54 163.68l-.24.1h-.2l-2.75.2-.38-.8 2.7-1.3zM584.64 113.53l-4-8.36 14.87-1.98z"/><path d="M584.34 115.2l-5.2-10.84 19.3-2.57zm-2.2-9.22l2.8 5.88 7.65-7.27z"/><path d="M219.14 162.78L330 109.68" stroke="#000" stroke-width="2" fill="none"/><path d="M219.57 163.68l-.24.1h-.2l-2.74.2-.4-.8 2.7-1.3zM332.67 113.53l-4-8.36 14.87-1.98z"/><path d="M332.37 115.2l-5.2-10.84 19.3-2.57zm-2.2-9.22l2.8 5.88 7.65-7.27z"/><path d="M94.5 162.78l108.26-52.98" stroke="#000" stroke-width="2" fill="none"/><path d="M94.93 163.68l-.25.1h-.2l-2.75.2-.38-.78 2.7-1.32zM205.46 113.65l-4.08-8.33 14.85-2.1z"/><path d="M205.16 115.32l-5.28-10.8 19.26-2.73zm-2.28-9.2l2.87 5.85 7.58-7.34z"/><path d="M219.14 162.78L110.87 109.8" stroke="#000" stroke-width="2" fill="none"/><path d="M222.27 163.2l-.4.8-2.73-.22h-.2l-.24-.1.88-1.8zM112.25 105.32l-4.08 8.33L97.4 103.2z"/><path d="M113.75 104.52l-5.28 10.8L94.5 101.8zm-5.87 7.45l2.86-5.86-10.44-1.47z"/><path d="M471.1 162.78L362.85 109.8" stroke="#000" stroke-width="2" fill="none"/><path d="M474.24 163.2l-.4.8-2.73-.22h-.2l-.23-.1.88-1.8zM364.2 105.32l-4.06 8.33-10.78-10.44z"/><path d="M365.72 104.52l-5.3 10.8-13.96-13.53zm-5.87 7.45l2.86-5.86-10.43-1.47z"/><path d="M598.43 162.78l-109.58-53.04" stroke="#000" stroke-width="2" fill="none"/><path d="M601.56 163.18l-.4.82-2.73-.22h-.2l-.24-.1.86-1.8zM490.2 105.24l-4.03 8.35-10.82-10.4z"/><path d="M491.7 104.44l-5.23 10.82-14.03-13.47zm-5.83 7.47l2.84-5.85-10.43-1.44z"/><path d="M124.65 384.25c0 17.4-14.1 31.5-31.5 31.5s-31.5-14.1-31.5-31.5 14.1-31.5 31.5-31.5 31.5 14.1 31.5 31.5z" stroke="#000" stroke-width="2" fill="#fff"/><use xlink:href="#a" transform="matrix(1,0,0,1,66.65879265094802,357.75590551181097) translate(18.5 30.1)"/><path d="M250.64 384.25c0 17.4-14.1 31.5-31.5 31.5s-31.5-14.1-31.5-31.5 14.1-31.5 31.5-31.5 31.5 14.1 31.5 31.5z" stroke="#000" stroke-width="2" fill="#fff"/><use xlink:href="#b" transform="matrix(1,0,0,1,192.6430446194226,357.75590551181097) translate(18.5 30.1)"/><path d="M376.62 384.25c0 17.4-14.1 31.5-31.5 31.5s-31.5-14.1-31.5-31.5 14.1-31.5 31.5-31.5 31.5 14.1 31.5 31.5z" stroke="#000" stroke-width="2" fill="#ccc"/><use xlink:href="#c" transform="matrix(1,0,0,1,318.6272965878972,357.75590551181097) translate(18.5 30.1)"/><path d="M502.6 384.25c0 17.4-14.1 31.5-31.5 31.5s-31.5-14.1-31.5-31.5 14.1-31.5 31.5-31.5 31.5 14.1 31.5 31.5z" stroke="#000" stroke-width="2" fill="#fff"/><use xlink:href="#d" transform="matrix(1,0,0,1,444.61154855637176,357.75590551181097) translate(18.5 30.1)"/><path d="M628.6 384.25c0 17.4-14.1 31.5-31.5 31.5s-31.5-14.1-31.5-31.5 14.1-31.5 31.5-31.5 31.5 14.1 31.5 31.5z" stroke="#000" stroke-width="2" fill="#fff"/><use xlink:href="#e" transform="matrix(1,0,0,1,570.5958005248461,357.75590551181097) translate(18.5 30.1)"/><path d="M125.98 510.24c0 17.4-14.1 31.5-31.5 31.5S63 527.63 63 510.23s14.1-31.5 31.5-31.5 31.5 14.1 31.5 31.5z" stroke="#000" stroke-width="2" fill="#ccc"/><use xlink:href="#f" transform="matrix(1,0,0,1,67.99212598428136,483.74015748036715) translate(18 30.1)"/><path d="M251.97 510.24c0 17.4-14.1 31.5-31.5 31.5s-31.5-14.1-31.5-31.5 14.1-31.5 31.5-31.5 31.5 14.1 31.5 31.5z" stroke="#000" stroke-width="2" fill="#ccc"/><use xlink:href="#g" transform="matrix(1,0,0,1,193.97637795275594,483.74015748036715) translate(18 30.1)"/><path d="M377.95 510.24c0 17.4-14.1 31.5-31.5 31.5s-31.5-14.1-31.5-31.5 14.1-31.5 31.5-31.5 31.5 14.1 31.5 31.5z" stroke="#000" stroke-width="2" fill="#ccc"/><use xlink:href="#h" transform="matrix(1,0,0,1,319.9606299212305,483.74015748036715) translate(18 30.1)"/><path d="M503.94 510.24c0 17.4-14.1 31.5-31.5 31.5s-31.5-14.1-31.5-31.5 14.1-31.5 31.5-31.5 31.5 14.1 31.5 31.5z" stroke="#000" stroke-width="2" fill="#ccc"/><use xlink:href="#i" transform="matrix(1,0,0,1,445.9448818897051,483.74015748036715) translate(18 30.1)"/><path d="M628.6 510.24c0 17.4-14.1 31.5-31.5 31.5s-31.5-14.1-31.5-31.5 14.1-31.5 31.5-31.5 31.5 14.1 31.5 31.5z" stroke="#000" stroke-width="2" fill="#ccc"/><use xlink:href="#j" transform="matrix(1,0,0,1,570.5958005248461,483.74015748036715) translate(18 30.1)"/><path d="M346.46 477.74v-30.5h-1.34V435" stroke="#000" stroke-width="2" fill="none"/><path d="M347.46 478.82l-1-.08-1 .07v-1.06h2zM349.76 434.25h-9.27L345.1 420z"/><path d="M351.14 435.25H339.1l6.02-18.5zm-9.28-2h6.52l-3.26-10.03z"/><path d="M346.46 477.74l108.27-52.98" stroke="#000" stroke-width="2" fill="none"/><path d="M346.9 478.64l-.25.12-.2-.02-2.75.2-.38-.78 2.7-1.32zM457.42 428.6l-4.07-8.32 14.85-2.1z"/><path d="M457.13 430.28l-5.28-10.8 19.26-2.73zm-2.28-9.2l2.87 5.85 7.57-7.34z"/><path d="M346.46 477.74l-110.87-53.1" stroke="#000" stroke-width="2" fill="none"/><path d="M349.6 478.13l-.4.83-2.74-.22h-.2l-.24-.1.87-1.8zM236.93 420.13l-4 8.36-10.87-10.35z"/><path d="M238.42 419.32l-5.2 10.85-14.08-13.42zm-5.8 7.5l2.8-5.88-10.44-1.4z"/><path d="M220.47 477.74v-30.5h-1.33V435" stroke="#000" stroke-width="2" fill="none"/><path d="M221.47 478.82l-1-.08-1 .07v-1.06h2zM223.77 434.25h-9.27l4.64-14.26z"/><path d="M225.15 435.25h-12.02l6-18.5zm-9.27-2h6.52l-3.26-10.03z"/><path d="M94.5 477.74v-30.5h-1.35V435" stroke="#000" stroke-width="2" fill="none"/><path d="M95.5 478.82l-1-.08-1 .07v-1.06h2zM97.8 434.25H88.5L93.15 420z"/><path d="M99.17 435.25H87.14l6-18.5zm-9.27-2h6.5l-3.25-10.03z"/><path d="M472.44 477.74v-30.5h-1.33V435" stroke="#000" stroke-width="2" fill="none"/><path d="M473.44 478.82l-1-.08-1 .07v-1.06h2zM475.74 434.25h-9.27L471.1 420z"/><path d="M477.12 435.25H465.1l6-18.5zm-9.27-2h6.52l-3.26-10.03z"/><path d="M597.1 477.74V435" stroke="#000" stroke-width="2" fill="none"/><path d="M598.1 478.82l-1-.08-1 .07v-1.06h2zM601.73 434.25h-9.27L597.1 420z"/><path d="M603.1 435.25h-12.02l6-18.5zm-9.27-2h6.52l-3.26-10.03z"/><path d="M472.44 477.74l108.27-52.98" stroke="#000" stroke-width="2" fill="none"/><path d="M472.88 478.64l-.24.12-.2-.02-2.75.2-.4-.78 2.7-1.32zM583.4 428.6l-4.07-8.32 14.86-2.1z"/><path d="M583.1 430.28l-5.27-10.8 19.26-2.73zm-2.26-9.2l2.86 5.85 7.58-7.34z"/><path d="M220.47 477.74l108.27-52.98" stroke="#000" stroke-width="2" fill="none"/><path d="M220.9 478.64l-.23.12-.2-.02-2.75.2-.38-.78 2.7-1.32zM331.44 428.6l-4.07-8.32 14.85-2.1z"/><path d="M331.15 430.28l-5.3-10.8 19.27-2.73zm-2.28-9.2l2.86 5.85 7.58-7.34z"/><path d="M94.5 477.74l108.26-52.98" stroke="#000" stroke-width="2" fill="none"/><path d="M94.93 478.64l-.25.12-.2-.02-2.75.2-.38-.78 2.7-1.32zM205.46 428.6l-4.08-8.32 14.85-2.1z"/><path d="M205.16 430.28l-5.28-10.8 19.26-2.73zm-2.28-9.2l2.87 5.85 7.58-7.34z"/><path d="M220.47 477.74l-110.87-53.1" stroke="#000" stroke-width="2" fill="none"/><path d="M223.6 478.13l-.4.83-2.73-.22h-.2l-.23-.1.86-1.8zM110.94 420.13l-4 8.36-10.87-10.35z"/><path d="M112.44 419.32l-5.2 10.85-14.1-13.42zm-5.8 7.5l2.8-5.88-10.45-1.4z"/><path d="M472.44 477.74l-110.87-53.1" stroke="#000" stroke-width="2" fill="none"/><path d="M475.58 478.13l-.4.83-2.74-.22h-.2l-.23-.1.87-1.8zM362.9 420.13l-4 8.36-10.86-10.35z"/><path d="M364.4 419.32l-5.2 10.85-14.08-13.42zm-5.8 7.5l2.8-5.88-10.44-1.4z"/><path d="M597.1 477.74L487.5 424.7" stroke="#000" stroke-width="2" fill="none"/><path d="M600.23 478.14l-.4.82-2.74-.22h-.2l-.24-.1.87-1.8zM488.88 420.2l-4.04 8.35-10.82-10.4z"/><path d="M490.38 419.4l-5.24 10.82-14.03-13.47zm-5.84 7.47l2.84-5.86-10.45-1.43z"/><path d="M346.46 477.74l232.9-56.68" stroke="#000" stroke-width="2" fill="none"/><path d="M346.7 478.7l-.16.05h-.08l-2.8.2-.35-1.47 2.92-.7zM593.95 417.52l-12.77 7.87-2.2-9.02z"/><path d="M597.1 416.75l-16.56 10.22-2.85-11.7zm-15.27 7.07l8.97-5.54-10.5-.8z"/><path d="M220.47 477.74l232.92-56.68" stroke="#000" stroke-width="2" fill="none"/><path d="M220.7 478.7l-.14.05h-.1l-2.78.2-.36-1.47 2.92-.7zM467.96 417.52l-12.76 7.87-2.2-9.02z"/><path d="M471.1 416.75l-16.55 10.22-2.84-11.7zm-15.26 7.07l8.98-5.54-10.52-.8z"/><path d="M94.5 477.74l232.9-56.68" stroke="#000" stroke-width="2" fill="none"/><path d="M94.72 478.7l-.15.05h-.08l-2.8.2-.36-1.47 2.9-.7zM341.98 417.52l-12.77 7.87-2.18-9.02z"/><path d="M345.12 416.75l-16.55 10.22-2.85-11.7zm-15.26 7.07l8.97-5.54-10.5-.8z"/><path d="M346.46 477.74l-235.58-56.72" stroke="#000" stroke-width="2" fill="none"/><path d="M349.6 477.47l-.35 1.5-2.8-.23h-.08l-.15-.03.47-1.93zM109.1 425.35l-12.8-7.84 14.96-1.16z"/><path d="M109.74 426.93l-16.6-10.18 19.4-1.5zm-10.3-8.66l9 5.5 1.52-6.33z"/><path d="M472.44 477.74l-235.57-56.72" stroke="#000" stroke-width="2" fill="none"/><path d="M475.6 477.47l-.37 1.5-2.8-.23h-.07l-.15-.03.48-1.93zM235.07 425.35l-12.78-7.84 14.94-1.16z"/><path d="M235.72 426.93l-16.58-10.18 19.4-1.5zm-10.3-8.66l9 5.5 1.53-6.33z"/><path d="M597.1 477.74l-234.25-56.7" stroke="#000" stroke-width="2" fill="none"/><path d="M600.24 477.47l-.36 1.5-2.8-.23h-.07l-.14-.03.47-1.93zM361.04 425.37l-12.77-7.86 14.95-1.14z"/><path d="M361.7 426.95l-16.58-10.2 19.4-1.5zm-10.3-8.68l9 5.53 1.53-6.33z"/><path d="M472.44 477.74l-361.28-58.1" stroke="#000" stroke-width="2" fill="none"/><path d="M475.56 477.23l-.28 1.74-2.84-.23h-.04l-.12-.02.32-1.97zM109.7 424.1l-13.35-6.84 14.82-2.3z"/><path d="M110.47 425.62l-17.32-8.87 19.23-3zm-10.93-7.84l9.4 4.8 1.02-6.43z"/><path d="M597.1 477.74l-485.84-58.8" stroke="#000" stroke-width="2" fill="none"/><path d="M600.2 477.1l-.24 1.87-2.87-.23h-.13l.24-2zM109.97 423.46l-13.6-6.32 14.72-2.9z"/><path d="M110.8 424.94l-17.65-8.2 19.1-3.73zm-11.22-7.4l9.57 4.43.78-6.47z"/><path d="M94.5 477.74l484.5-58.8" stroke="#000" stroke-width="2" fill="none"/><path d="M94.6 478.73h-.1l-2.9.2-.2-1.82 2.97-.36zM593.88 417.14l-13.6 6.32-1.12-9.2z"/><path d="M597.1 416.75l-17.65 8.2L578 413zm-16 5.22l9.57-4.44-10.35-2.03z"/><path d="M220.47 477.74l358.62-58.07" stroke="#000" stroke-width="2" fill="none"/><path d="M220.63 478.72l-.1.02h-.06l-2.84.2-.28-1.7 2.96-.5zM593.9 417.27l-13.34 6.85-1.5-9.15z"/><path d="M597.1 416.75l-17.3 8.9-1.93-11.88zm-15.78 5.86l9.38-4.8-10.42-1.63z"/><path d="M94.5 477.74l358.6-58.07" stroke="#000" stroke-width="2" fill="none"/><path d="M94.65 478.72l-.12.02h-.04l-2.86.2-.27-1.7 2.96-.5zM467.9 417.27l-13.33 6.85-1.48-9.15z"/><path d="M471.1 416.75l-17.3 8.9-1.92-11.88zm-15.76 5.86l9.38-4.8-10.42-1.63z"/><path d="M597.1 477.74l-359.96-58.08" stroke="#000" stroke-width="2" fill="none"/><path d="M600.2 477.23l-.27 1.74-2.84-.23h-.05l-.12-.02.32-1.97zM235.68 424.1l-13.35-6.83 14.83-2.3z"/><path d="M236.45 425.63l-17.3-8.88 19.2-3zm-10.92-7.85l9.38 4.82 1.05-6.44z"/><defs><path d="M135-143c-3-34-86-38-87 0 15 53 115 12 119 90S17 21 10-45l28-5c4 36 97 45 98 0-10-56-113-15-118-90-4-57 82-63 122-42 12 7 21 19 24 35" id="k"/><path d="M27 0v-27h64v-190l-56 39v-29l58-41h29v221h61V0H27" id="l"/><g id="a"><use transform="matrix(0.05,0,0,0.05,0,0)" xlink:href="#k"/><use transform="matrix(0.034999999999999996,0,0,0.034999999999999996,9,2.5199999999999996)" xlink:href="#l"/></g><path d="M101-251c82-7 93 87 43 132L82-64C71-53 59-42 53-27h129V0H18c2-99 128-94 128-182 0-28-16-43-45-43s-46 15-49 41l-32-3c6-41 34-60 81-64" id="m"/><g id="b"><use transform="matrix(0.05,0,0,0.05,0,0)" xlink:href="#k"/><use transform="matrix(0.034999999999999996,0,0,0.034999999999999996,9,2.5199999999999996)" xlink:href="#m"/></g><path d="M126-127c33 6 58 20 58 59 0 88-139 92-164 29-3-8-5-16-6-25l32-3c6 27 21 44 54 44 32 0 52-15 52-46 0-38-36-46-79-43v-28c39 1 72-4 72-42 0-27-17-43-46-43-28 0-47 15-49 41l-32-3c6-42 35-63 81-64 48-1 79 21 79 65 0 36-21 52-52 59" id="n"/><g id="c"><use transform="matrix(0.05,0,0,0.05,0,0)" xlink:href="#k"/><use transform="matrix(0.034999999999999996,0,0,0.034999999999999996,9,2.5199999999999996)" xlink:href="#n"/></g><path d="M155-56V0h-30v-56H8v-25l114-167h33v167h35v25h-35zm-30-156c-27 46-58 90-88 131h88v-131" id="o"/><g id="d"><use transform="matrix(0.05,0,0,0.05,0,0)" xlink:href="#k"/><use transform="matrix(0.034999999999999996,0,0,0.034999999999999996,9,2.5199999999999996)" xlink:href="#o"/></g><path d="M54-142c48-35 137-8 131 61C196 18 31 33 14-55l32-4c7 23 22 37 52 37 35-1 51-22 54-58 4-55-73-65-99-34H22l8-134h141v27H59" id="p"/><g id="e"><use transform="matrix(0.05,0,0,0.05,0,0)" xlink:href="#k"/><use transform="matrix(0.034999999999999996,0,0,0.034999999999999996,9,2.5199999999999996)" xlink:href="#p"/></g><path d="M115-194c55 1 70 41 70 98S169 2 115 4C84 4 66-9 55-30l1 105H24l-1-265h31l2 30c10-21 28-34 59-34zm-8 174c40 0 45-34 45-75s-6-73-45-74c-42 0-51 32-51 76 0 43 10 73 51 73" id="q"/><g id="f"><use transform="matrix(0.05,0,0,0.05,0,0)" xlink:href="#q"/><use transform="matrix(0.034999999999999996,0,0,0.034999999999999996,10,2.5199999999999996)" xlink:href="#l"/></g><g id="g"><use transform="matrix(0.05,0,0,0.05,0,0)" xlink:href="#q"/><use transform="matrix(0.034999999999999996,0,0,0.034999999999999996,10,2.5199999999999996)" xlink:href="#m"/></g><g id="h"><use transform="matrix(0.05,0,0,0.05,0,0)" xlink:href="#q"/><use transform="matrix(0.034999999999999996,0,0,0.034999999999999996,10,2.5199999999999996)" xlink:href="#n"/></g><g id="i"><use transform="matrix(0.05,0,0,0.05,0,0)" xlink:href="#q"/><use transform="matrix(0.034999999999999996,0,0,0.034999999999999996,10,2.5199999999999996)" xlink:href="#o"/></g><g id="j"><use transform="matrix(0.05,0,0,0.05,0,0)" xlink:href="#q"/><use transform="matrix(0.034999999999999996,0,0,0.034999999999999996,10,2.5199999999999996)" xlink:href="#p"/></g></defs></g></svg>