<svg xmlns="http://www.w3.org/2000/svg" xmlns:xlink="http://www.w3.org/1999/xlink" xmlns:lucid="lucid" width="606.93" height="228.98"><g transform="translate(-36.69291338582676 -30.393700787401578)" lucid:page-tab-id="kLBK8xCkoo2Y"><path d="M119.7 207.87c0 17.4-14.12 31.5-31.5 31.5-17.4 0-31.5-14.1-31.5-31.5s14.1-31.5 31.5-31.5c17.38 0 31.5 14.1 31.5 31.5z" stroke="#000" stroke-width="2" fill="#fff"/><use xlink:href="#a" transform="matrix(1,0,0,1,61.69291338582679,181.37795275595775) translate(18 30.1)"/><path d="M244.34 207.87c0 17.4-14.1 31.5-31.5 31.5s-31.5-14.1-31.5-31.5 14.1-31.5 31.5-31.5 31.5 14.1 31.5 31.5z" stroke="#000" stroke-width="2" fill="#fff"/><use xlink:href="#b" transform="matrix(1,0,0,1,186.34383202096814,181.37795275595775) translate(18 30.1)"/><path d="M371.65 207.87c0 17.4-14.1 31.5-31.5 31.5s-31.5-14.1-31.5-31.5 14.1-31.5 31.5-31.5 31.5 14.1 31.5 31.5z" stroke="#000" stroke-width="2" fill="#fff"/><use xlink:href="#c" transform="matrix(1,0,0,1,313.661417322776,181.37795275595775) translate(18 30.1)"/><path d="M497.64 207.87c0 17.4-14.1 31.5-31.5 31.5s-31.5-14.1-31.5-31.5 14.1-31.5 31.5-31.5 31.5 14.1 31.5 31.5z" stroke="#000" stroke-width="2" fill="#fff"/><use xlink:href="#d" transform="matrix(1,0,0,1,439.64566929125056,181.37795275595775) translate(18 30.1)"/><path d="M623.62 207.87c0 17.4-14.1 31.5-31.5 31.5s-31.5-14.1-31.5-31.5 14.1-31.5 31.5-31.5 31.5 14.1 31.5 31.5z" stroke="#000" stroke-width="2" fill="#fff"/><use xlink:href="#e" transform="matrix(1,0,0,1,565.6299212597249,181.37795275595775) translate(18 30.1)"/><path d="M119.7 81.9c0 17.38-14.12 31.5-31.5 31.5-17.4 0-31.5-14.12-31.5-31.5 0-17.4 14.1-31.5 31.5-31.5 17.38 0 31.5 14.1 31.5 31.5z" stroke="#000" stroke-width="2" fill="#fff"/><use xlink:href="#f" transform="matrix(1,0,0,1,61.69291338582676,55.39370078740158) translate(18.5 30.1)"/><path d="M371.65 81.9c0 17.38-14.1 31.5-31.5 31.5s-31.5-14.12-31.5-31.5c0-17.4 14.1-31.5 31.5-31.5s31.5 14.1 31.5 31.5z" stroke="#000" stroke-width="2" fill="#fff"/><use xlink:href="#g" transform="matrix(1,0,0,1,313.66141732277595,55.39370078740158) translate(18.5 30.1)"/><path d="M623.62 81.9c0 17.38-14.1 31.5-31.5 31.5s-31.5-14.12-31.5-31.5c0-17.4 14.1-31.5 31.5-31.5s31.5 14.1 31.5 31.5z" stroke="#000" stroke-width="2" fill="#fff"/><use xlink:href="#h" transform="matrix(1,0,0,1,565.6299212597249,55.39370078740158) translate(18.5 30.1)"/><path d="M88.2 175.38v-42.76" stroke="#000" stroke-width="2" fill="none"/><path d="M89.2 176.46l-1-.08-1 .07v-1.07h2zM92.82 131.9h-9.27l4.64-14.28z"/><path d="M94.2 132.9H82.18l6-18.5zm-9.27-2h6.52l-3.26-10.04z"/><path d="M212.84 175.38L104.57 122.4" stroke="#000" stroke-width="2" fill="none"/><path d="M215.97 175.8l-.4.8-2.73-.22h-.2l-.24-.1.88-1.8zM105.95 117.92l-4.08 8.32L91.1 115.8z"/><path d="M107.45 117.12l-5.28 10.8L88.2 114.4zm-5.87 7.45l2.86-5.86L94 117.24z"/><path d="M340.16 175.38v-42.76" stroke="#000" stroke-width="2" fill="none"/><path d="M341.16 176.46l-1-.08-1 .07v-1.07h2zM344.8 131.9h-9.28l4.64-14.28z"/><path d="M346.17 132.9h-12.02l6-18.5zm-9.27-2h6.52l-3.26-10.04z"/><path d="M466.14 175.38l109.57-53.05" stroke="#000" stroke-width="2" fill="none"/><path d="M466.58 176.28l-.25.1h-.2l-2.74.2-.4-.8 2.7-1.3zM578.4 126.2l-4.05-8.36 14.86-2.04z"/><path d="M578.1 127.86l-5.25-10.82 19.28-2.65zm-2.25-9.2l2.84 5.85 7.6-7.3z"/><path d="M592.13 175.38v-42.76" stroke="#000" stroke-width="2" fill="none"/><path d="M593.13 176.46l-1-.08-1 .07v-1.07h2zM596.76 131.9h-9.27l4.63-14.28z"/><path d="M598.14 132.9H586.1l6.03-18.5zm-9.27-2h6.5l-3.24-10.04z"/><path d="M212.84 175.38l110.87-53.1" stroke="#000" stroke-width="2" fill="none"/><path d="M213.27 176.28l-.24.1h-.2l-2.74.2-.4-.8 2.7-1.3zM326.38 126.13l-4-8.36 14.86-1.98z"/><path d="M326.07 127.8l-5.2-10.84 19.3-2.57zm-2.2-9.22l2.8 5.88 7.65-7.28z"/><path d="M466.14 175.38l-109.57-53.05" stroke="#000" stroke-width="2" fill="none"/><path d="M469.28 175.78l-.4.82-2.74-.22h-.2l-.23-.1.88-1.8zM357.93 117.84l-4.04 8.35-10.83-10.4z"/><path d="M359.43 117.04l-5.24 10.82-14.04-13.47zm-5.84 7.47l2.83-5.85-10.45-1.44z"/><defs><path d="M115-194c55 1 70 41 70 98S169 2 115 4C84 4 66-9 55-30l1 105H24l-1-265h31l2 30c10-21 28-34 59-34zm-8 174c40 0 45-34 45-75s-6-73-45-74c-42 0-51 32-51 76 0 43 10 73 51 73" id="i"/><path d="M27 0v-27h64v-190l-56 39v-29l58-41h29v221h61V0H27" id="j"/><g id="a"><use transform="matrix(0.05,0,0,0.05,0,0)" xlink:href="#i"/><use transform="matrix(0.034999999999999996,0,0,0.034999999999999996,10,2.5199999999999996)" xlink:href="#j"/></g><path d="M101-251c82-7 93 87 43 132L82-64C71-53 59-42 53-27h129V0H18c2-99 128-94 128-182 0-28-16-43-45-43s-46 15-49 41l-32-3c6-41 34-60 81-64" id="k"/><g id="b"><use transform="matrix(0.05,0,0,0.05,0,0)" xlink:href="#i"/><use transform="matrix(0.034999999999999996,0,0,0.034999999999999996,10,2.5199999999999996)" xlink:href="#k"/></g><path d="M126-127c33 6 58 20 58 59 0 88-139 92-164 29-3-8-5-16-6-25l32-3c6 27 21 44 54 44 32 0 52-15 52-46 0-38-36-46-79-43v-28c39 1 72-4 72-42 0-27-17-43-46-43-28 0-47 15-49 41l-32-3c6-42 35-63 81-64 48-1 79 21 79 65 0 36-21 52-52 59" id="l"/><g id="c"><use transform="matrix(0.05,0,0,0.05,0,0)" xlink:href="#i"/><use transform="matrix(0.034999999999999996,0,0,0.034999999999999996,10,2.5199999999999996)" xlink:href="#l"/></g><path d="M155-56V0h-30v-56H8v-25l114-167h33v167h35v25h-35zm-30-156c-27 46-58 90-88 131h88v-131" id="m"/><g id="d"><use transform="matrix(0.05,0,0,0.05,0,0)" xlink:href="#i"/><use transform="matrix(0.034999999999999996,0,0,0.034999999999999996,10,2.5199999999999996)" xlink:href="#m"/></g><path d="M54-142c48-35 137-8 131 61C196 18 31 33 14-55l32-4c7 23 22 37 52 37 35-1 51-22 54-58 4-55-73-65-99-34H22l8-134h141v27H59" id="n"/><g id="e"><use transform="matrix(0.05,0,0,0.05,0,0)" xlink:href="#i"/><use transform="matrix(0.034999999999999996,0,0,0.034999999999999996,10,2.5199999999999996)" xlink:href="#n"/></g><path d="M135-143c-3-34-86-38-87 0 15 53 115 12 119 90S17 21 10-45l28-5c4 36 97 45 98 0-10-56-113-15-118-90-4-57 82-63 122-42 12 7 21 19 24 35" id="o"/><g id="f"><use transform="matrix(0.05,0,0,0.05,0,0)" xlink:href="#o"/><use transform="matrix(0.034999999999999996,0,0,0.034999999999999996,9,2.5199999999999996)" xlink:href="#j"/></g><g id="g"><use transform="matrix(0.05,0,0,0.05,0,0)" xlink:href="#o"/><use transform="matrix(0.034999999999999996,0,0,0.034999999999999996,9,2.5199999999999996)" xlink:href="#l"/></g><g id="h"><use transform="matrix(0.05,0,0,0.05,0,0)" xlink:href="#o"/><use transform="matrix(0.034999999999999996,0,0,0.034999999999999996,9,2.5199999999999996)" xlink:href="#n"/></g></defs></g></svg>